<svg id="Layer_3_copy" data-name="Layer 3 copy" xmlns="http://www.w3.org/2000/svg" xmlns:xlink="http://www.w3.org/1999/xlink" viewBox="0 0 351.01 217.41"><defs><style>.cls-1{fill:#ffffff;}.cls-2{fill:url(#linear-gradient);}.cls-3{fill:url(#linear-gradient-2);}.cls-4{fill:url(#linear-gradient-3);}</style><linearGradient id="linear-gradient" x1="406.14" y1="459.95" x2="406.14" y2="287.21" gradientUnits="userSpaceOnUse"><stop offset="0" stop-color="#fff" stop-opacity="0"/><stop offset="0.6" stop-opacity="0.2"/></linearGradient><linearGradient id="linear-gradient-2" x1="535.18" y1="427.15" x2="535.18" y2="332.63" xlink:href="#linear-gradient"/><linearGradient id="linear-gradient-3" x1="590.86" y1="504.23" x2="590.86" y2="358.79" xlink:href="#linear-gradient"/></defs><title>savvy</title><path class="cls-1" d="M518.16,337.84l1.15-1.37c0-.23,0-.92-.23-.92-.92,0-1.38-.46-1.84-1.38-.23-.46-1.37-.46-1.83-.68A1.69,1.69,0,0,0,514,333a6,6,0,0,0-2.29.91c-1.15,1.15-2.53,1.84-3.21,2.53a26.15,26.15,0,0,0-4.59,5.73,112.29,112.29,0,0,0-6.43,11.47c-3.21,6.43-5.73,12.62-8.48,19l-7.34,20.42L478,402.08a.49.49,0,0,1-.46.45l-.46-.45v-.46c-.23-3-.23-5.74-.23-8.49,0-1.15.23-2.52.23-3.67a64.35,64.35,0,0,0,.23-6.65v-2.76c0-3,.46-6.19.46-9.17h-.23c.23-2.76.68-5.51.68-8.26A20.56,20.56,0,0,0,478,359a4.81,4.81,0,0,0-.92-1.38c0-.23-.69-.69-1.15-.92-.23-.23-.46-.45-.69-.45s-.23.22-.46.22a.83.83,0,0,1-.68.23,8.49,8.49,0,0,0-2.07-.91h-.69a1.46,1.46,0,0,0-1.6,1.14,24.44,24.44,0,0,0-1.38,4.36c0,2.3-.92,4.36-1.61,6.66a2,2,0,0,0-.23,1.14v6c0,1.14-.68,2.52-.68,3.9-.23,1.6,0,3.21-.46,4.81,0,1.15-.46,2.07-.46,3.22v.68a3.91,3.91,0,0,0,.23,1.61,4,4,0,0,0,.11.88c-2.66,4-5.24,7.87-8.14,11.74-3.44,5.73-8,10.55-12.16,15.14-1.37,1.83-3.21,3-4.82,4.59a8.94,8.94,0,0,1-2.29.68h-.69a3.36,3.36,0,0,1-3-1.6,8.8,8.8,0,0,1-1.15-4.36c0-1.84-.23-3.44-.23-5.28,0-2.52.23-4.82.46-7.34.46-4.13,1.38-7.8,2.07-11.47,2.06-8.49,4.59-17,7.11-25.23l2.52-7.8c0-.46.23-.92.23-1.38a4.35,4.35,0,0,0-1.6-3c-.69-.46-2.07-.92-3-1.38A9.1,9.1,0,0,0,439,353c-.46,0-.69.46-1.38,1.38l-4.36,6.19c-3.21,4.59-7.11,9.64-9.86,14.23-4.59,7.11-9.41,14-14.22,20.87a60.08,60.08,0,0,1-10.56,13.08.83.83,0,0,1-.68.23h-.23a1.74,1.74,0,0,1-.46-.92,9.32,9.32,0,0,1,.23-2.52,29.16,29.16,0,0,1,2.06-7.34,109.48,109.48,0,0,1,7.57-18.59,88.91,88.91,0,0,1,5.51-7.34l2.75-2.52a.84.84,0,0,1,.69-.23c.23,0,.46,0,.92.46l3.67,2.75a3.75,3.75,0,0,0,1.14.46c.23,0,.46-.23.69-.46a2.08,2.08,0,0,0,.69-1.6,8.69,8.69,0,0,0-2.07-4.59,16.17,16.17,0,0,0-10.78-4.59c-.69,0-1.37.23-1.83.23a3.06,3.06,0,0,0-1.84.69c-1.83,1.37-3.67,2.29-5.27,4.59-.46.23-.69.91-1.15,1.6s-.9,1.22-1.35,1.84h-7.37a48.65,48.65,0,0,0-9.4.91,59.13,59.13,0,0,0-17.44,5.51l-3,.92a1.38,1.38,0,0,1-.92.23c-.23,0-.46,0-.91-.46a2.3,2.3,0,0,1-1.15-.92c-2.07-1.83-3.9-3.21-6-4.82a52.07,52.07,0,0,0-25.46-8.71L317,362.39h-2.76a57.26,57.26,0,0,0-8.48-.69c-.23,0-.23-.46-.69-.46-.69-.23-1.61-.46-1.61-1.14,0-.23.23-.23.23-.46a8.65,8.65,0,0,1,1.15-3.44,36.08,36.08,0,0,1,4.82-8.72c2.29-3.67,5-7.11,7.57-10.55,3.21-4.13,6.65-8,9.86-11.7,4.36-3.9,8.72-8,13.54-11.7l10.55-6.88a64,64,0,0,1,16.06-7.57,19.25,19.25,0,0,1,6.19-.92,14,14,0,0,1,3,.23c.23,0,.92,0,1.15.23a1.92,1.92,0,0,1,1.6,1.6v.23a2.22,2.22,0,0,1-.45,1.61c-.69,1.6-.69,3.67-1.61,4.81a74,74,0,0,1-4.82,10.79,56.24,56.24,0,0,1-6.42,11.47,90.84,90.84,0,0,1-8.72,12.16,26.38,26.38,0,0,0-2.75,4.12,3.89,3.89,0,0,0-.46,1.15c0,.69.46.92,1.61,1.61h.23c.46-.23.46-.23.68-.69a4.89,4.89,0,0,0-.2-.77,5,5,0,0,0,.52.63l-.32.14a1,1,0,0,1-.22.69c-.46.46-.46.68-.46.91,0,.46,0,.69.68.69h.92a.71.71,0,0,0-.23.46v.69h.46c.92,0,1.61,0,2.07-.69a9,9,0,0,0,3.44-2.52,62.23,62.23,0,0,0,9.17-9.87,104.82,104.82,0,0,0,14-24.08,21.31,21.31,0,0,0,2.06-6.43c0-.68.23-1.37.23-2.06a13.94,13.94,0,0,0-2.52-8l-1.84-2.52a55.4,55.4,0,0,0-4.59-3.44,21,21,0,0,0-8-3.22,25.1,25.1,0,0,0-4.12-.46,26.42,26.42,0,0,0-8.49,1.61,52.3,52.3,0,0,0-7.57,3,69.79,69.79,0,0,0-9.18,4.82c-3.21,1.61-6,3.67-8.72,5.28-2.06,1.83-4.35,3.44-6.65,5.27-3,2.53-5.5,5.05-8.49,7.8a34,34,0,0,0-3,2.76A81.57,81.57,0,0,0,308,326.6L306,328.9l-5.05,7.34a54.46,54.46,0,0,0-4.59,8.94,22.92,22.92,0,0,0-2.52,7.57,10.79,10.79,0,0,0,2.06,6.43,14.59,14.59,0,0,0,3,4.59c1.84,2.52,3.9,4.81,6.89,5.73a37.79,37.79,0,0,0,4.81,1.38,141.66,141.66,0,0,0,17.21.69,48.79,48.79,0,0,1,16.06,2.52,50.28,50.28,0,0,1,10.55,5.28c.23.68.69.91.92,1.6a.23.23,0,0,1,.23.23c0,.23,0,.23-.23.23a2.3,2.3,0,0,1-1.15.92,163.86,163.86,0,0,0-17,10.78c-5,3.9-9.86,8-14.68,11.93a89.07,89.07,0,0,0-8.26,7.8,132.6,132.6,0,0,0-17.66,20.41,40.85,40.85,0,0,0-3.67,7.8,10.41,10.41,0,0,0-.69,3.67v1.15a8.58,8.58,0,0,0,2.3,5.74,11.46,11.46,0,0,0,2.75,3,15.94,15.94,0,0,0,7.11,4.59,25.88,25.88,0,0,0,8.26,1.14h2.29c4.59-.46,8.49-2.06,12.85-3.44,5.73-2.75,10.78-6.19,16.29-9.86l8.48-7.57a55,55,0,0,0,8.26-9.64,48.42,48.42,0,0,0,8.26-27.75,47.91,47.91,0,0,0-.23-5.74,2.5,2.5,0,0,1-.23-1.15c-.91-3.21-1.37-5.73-2.75-8.25-.69-1.15-.92-1.61-.92-2.07s.69-.92,2.07-1.61l5.5-2.29c6.43-3.21,11.24-3.9,17.44-4.82a28.14,28.14,0,0,1,6-1c-1.23,1.94-2.4,3.93-3.5,6a85.85,85.85,0,0,0-3.9,10.78,37.28,37.28,0,0,0-2.29,12.62c0,.92.22,2.06.22,3,0,.46-.22.69-.22,1.15a6.41,6.41,0,0,0,2.52,5c2.29,2.06,4.13,4.35,6.65,5.27a11.87,11.87,0,0,0,2.53.46,2.9,2.9,0,0,0,1.37-.23c1.61-.69,3.67-1.61,4.82-3.21a73.72,73.72,0,0,0,5.73-6.65,122.57,122.57,0,0,0,8-13.08L426.63,381c.46-1.38.23-2.75,1.84-3.21v.46c0,1.6-.92,3.21-1.38,4.59A127.22,127.22,0,0,0,423,405.52a5.66,5.66,0,0,0,.23,1.83c0,1.15.23,2.52.23,3.67a17.21,17.21,0,0,0,2.29,7.34,19.86,19.86,0,0,0,8.72,7.57,11.16,11.16,0,0,0,5.05,1.38c2.29,0,4.36-.92,7.11-2.52l6.19-5.51c2.07-3.21,4.59-6.19,6.43-8.95,2-2.83,3.91-5.67,5.76-8.54a7,7,0,0,0,.2,1.2,5.06,5.06,0,0,0-.23,1.84v.92c.69,3.67.69,7.34,1.15,11.24a50.48,50.48,0,0,0,1.14,5.73,3,3,0,0,0,2.07,2.3,38.82,38.82,0,0,0,6.65,2.29,2.07,2.07,0,0,0,1.15.23,3.64,3.64,0,0,0,2.29-1.15,4.27,4.27,0,0,0,.46-1.6,128.25,128.25,0,0,0,3.9-12.39c1.15-3.67,3-7.34,4.82-11.7a298.68,298.68,0,0,1,11-30.28,154.79,154.79,0,0,1,8.72-19C510.59,346.1,513.57,341.29,518.16,337.84ZM359.65,395a38,38,0,0,1-.46,5.51,50.91,50.91,0,0,1-7.57,20.88,40.17,40.17,0,0,1-5.74,6.65l-9.17,9.17c-2.07,1.84-4.36,3-6.2,4.59a81.82,81.82,0,0,1-8.72,6,45.33,45.33,0,0,1-12.84,5,21.81,21.81,0,0,1-5.74.69c-.46,0-.68-.23-1.37-.23a4.45,4.45,0,0,1-3.21-3.67v-3.67a56.86,56.86,0,0,1,4.58-9.17,122.81,122.81,0,0,1,9.64-11.93,207.91,207.91,0,0,1,19-18.59,162.51,162.51,0,0,1,17-12.38,56.74,56.74,0,0,1,8.26-5.05,1.19,1.19,0,0,1,.92-.46c0-.23.23-.23.46-.23s.46.23.46.69a6.75,6.75,0,0,1,.46,3v.92a1.38,1.38,0,0,0,.23.92Z" transform="translate(-292.2 -287.21)"/><path class="cls-1" d="M551,351.38c2.3-5.28,5.28-10.09,9.87-13.54l1.14-1.37c0-.23,0-.92-.23-.92-.91,0-1.37-.46-1.83-1.38-.23-.46-1.38-.46-1.84-.68a1.67,1.67,0,0,0-1.37-.46,6.09,6.09,0,0,0-2.3.91c-1.14,1.15-2.52,1.84-3.21,2.53a26.75,26.75,0,0,0-4.59,5.73,112.2,112.2,0,0,0-6.42,11.47c-3.21,6.43-5.74,12.62-8.49,19l-7.34,20.42-3.67,8.95a.49.49,0,0,1-.46.45l-.46-.45v-.46c-.23-3-.23-5.74-.23-8.49,0-1.15.23-2.52.23-3.67a64.35,64.35,0,0,0,.23-6.65v-2.76c0-3,.46-6.19.46-9.17h-.23c.23-2.76.69-5.51.69-8.26a19.68,19.68,0,0,0-.23-3.67,4.81,4.81,0,0,0-.92-1.38c0-.23-.68-.69-1.14-.92-.23-.23-.46-.45-.69-.45s-.23.22-.46.22a.84.84,0,0,1-.69.23,8.6,8.6,0,0,0-2.06-.91H514a1.47,1.47,0,0,0-1.61,1.14,23.65,23.65,0,0,0-1.37,4.36c0,2.3-.92,4.36-1.61,6.66a2,2,0,0,0-.23,1.14v6c0,1.14-.69,2.52-.69,3.9-.23,1.6,0,3.21-.46,4.81,0,1.15-.46,2.07-.46,3.22v.68a3.91,3.91,0,0,0,.23,1.61c0,.69.23,1.15.23,1.83,0,1.84-.46,3.9-.46,5.51v3.9a9.32,9.32,0,0,0,.23,2.52,5.06,5.06,0,0,0-.23,1.84v.92c.69,3.67.69,7.34,1.15,11.24a50.53,50.53,0,0,0,1.15,5.73A3,3,0,0,0,512,425a38.92,38.92,0,0,0,6.66,2.29,2,2,0,0,0,1.14.23,3.66,3.66,0,0,0,2.3-1.15,4.27,4.27,0,0,0,.46-1.6c1.6-4.13,2.75-8.26,3.9-12.39,1.14-3.67,3-7.34,4.81-11.7a301.12,301.12,0,0,1,11-30.28A157.82,157.82,0,0,1,551,351.38Z" transform="translate(-292.2 -287.21)"/><path class="cls-1" d="M642.72,375c-.46-.69-.46-1.61-1.61-1.84-.46,0-.68-.23-.91-.23a3.89,3.89,0,0,1-1.15.46c-3.9,2.29-8.49,4.36-12.62,6.42-1.6.92-17.66,6.89-19.27,7.57h-.23c-.23,0-.23,0-.23-.23v-.22a4.25,4.25,0,0,1,0-2.76c.46-4.81.46-9.63.69-14.45a22.2,22.2,0,0,0-.23-3.9c-.46-2.75,0-5.05-3.21-5.73l-1.61-.69-5.5-.23a2.18,2.18,0,0,0-1.84,1.6c-1.83,2.53-3.21,5.51-4.81,7.8a21.71,21.71,0,0,0-3.22,5.28c-3.44,4.82-8,9.18-11.69,14.22-3.67,5.28-9.18,9.64-14.23,13.31a9.59,9.59,0,0,1-2.75,1.14c-.23.46-.23.46-.69.46s-.46-.68-.46-.91v-.23a16.94,16.94,0,0,1,.92-3.22,119,119,0,0,1,6.65-14.45,36.41,36.41,0,0,0,2.76-10.55v-.92c0-1.6-.46-2.75-1.61-3.21a2.92,2.92,0,0,0-1.38-.23c-6.19,0-8.94,10.55-8.94,10.55a5.84,5.84,0,0,1-1.84,3.22c-2.29,5-4.59,9.4-5.5,14.68a4.44,4.44,0,0,0-.23,1.6v1.61a4,4,0,0,0,1.37,3.44,17.42,17.42,0,0,0,5.28,7.34,6.67,6.67,0,0,0,3.67,1.15,5.82,5.82,0,0,0,3-.46,55.45,55.45,0,0,0,9.87-6.88A96.24,96.24,0,0,0,584,391.29c3.21-4.81,6.43-9.86,9.18-14.91.46-.46.46-1.83.92-1.83h.45a1.75,1.75,0,0,1,.46,1.14c0,.23-.23.46-.23.69v.69c0,.46-.23,1.61-.23,2.07-.68,6.19-1.37,13.07-2.29,19.49v.23c.69,0,5-5,4.82-4.12a6.06,6.06,0,0,1-2.53,4.12,154.12,154.12,0,0,0-16,16.29c-3.67,4.36-7.34,8.72-10.78,13.31-2.53,3-4.59,6.42-7.12,9.63-2.75,3.9-5.27,7.8-7.8,11.93a126.37,126.37,0,0,0-9.63,17.21,43.71,43.71,0,0,0-4.82,15.82,24.94,24.94,0,0,0-.23,4.13V489c.92,6.88,4.82,11.47,10.55,14.68a19.54,19.54,0,0,0,3.9.92h1.15c3.67,0,7.11-1.15,10.78-2.53a42.34,42.34,0,0,0,17.21-14c4.36-5.28,7.34-11.24,10.09-17.2a158,158,0,0,0,6.2-16.29,50.23,50.23,0,0,0,2.06-7.8,81.26,81.26,0,0,0,2.29-10.32A107.71,107.71,0,0,0,604.18,425L607.39,398a3.45,3.45,0,0,1,1.61-3.21c1.6-1.15,12.16-7.35,14.22-8.49L642,375.92c.23,0,.46-.23.69-.45C642.72,375.24,643,375,642.72,375Zm-48,38.31c-.68,4.81-1.14,9.86-2.06,14.68a199,199,0,0,1-4.82,20.19A173.44,173.44,0,0,1,581,467.45c-1.83,3.67-3.44,7.35-5.51,11a81.16,81.16,0,0,1-8,10.09,45,45,0,0,1-11,7.57A37.94,37.94,0,0,1,550,498h-.69a3.34,3.34,0,0,1-3-1.6,13.23,13.23,0,0,1-.92-3.21,37.65,37.65,0,0,1-.45-5.28V486a15.42,15.42,0,0,1,.68-3.22,56.69,56.69,0,0,1,6.2-16.74c2.29-4.13,4.58-8.49,7.11-12.62a193.43,193.43,0,0,1,11.24-16.74l6.42-9,9.64-11.7,3.9-4.36,4.35-4.13H595a.8.8,0,0,1,.46.23Z" transform="translate(-292.2 -287.21)"/><path class="cls-2" d="M518.55,337.45l1.15-1.38c0-.22,0-.91-.23-.91-.92,0-1.38-.46-1.84-1.38-.23-.46-1.38-.46-1.83-.69a1.69,1.69,0,0,0-1.38-.46,6,6,0,0,0-2.3.92c-1.14,1.15-2.52,1.84-3.21,2.52a26.68,26.68,0,0,0-4.58,5.74,112.29,112.29,0,0,0-6.43,11.47c-3.21,6.42-5.73,12.62-8.48,19l-7.35,20.42-3.67,8.94a.49.49,0,0,1-.46.46l-.45-.46v-.46c-.23-3-.23-5.73-.23-8.48,0-1.15.23-2.53.23-3.67a64.44,64.44,0,0,0,.23-6.66v-2.75c0-3,.45-6.19.45-9.18h-.23c.23-2.75.69-5.5.69-8.25a19.63,19.63,0,0,0-.23-3.67,5,5,0,0,0-.91-1.38c0-.23-.69-.69-1.15-.92-.23-.23-.46-.46-.69-.46s-.23.23-.46.23a.84.84,0,0,1-.69.23,8,8,0,0,0-2.06-.92h-.69a1.46,1.46,0,0,0-1.6,1.15,24.19,24.19,0,0,0-1.38,4.36c0,2.29-.92,4.36-1.61,6.65a2.07,2.07,0,0,0-.23,1.15v6c0,1.15-.68,2.53-.68,3.9-.23,1.61,0,3.22-.46,4.82,0,1.15-.46,2.07-.46,3.21v.69a3.91,3.91,0,0,0,.23,1.61,4.52,4.52,0,0,0,.1.87c-2.65,4-5.23,7.88-8.13,11.74-3.44,5.74-8,10.56-12.16,15.14-1.38,1.84-3.21,3-4.82,4.59a8.59,8.59,0,0,1-2.29.69h-.69a3.34,3.34,0,0,1-3-1.61,8.73,8.73,0,0,1-1.15-4.35c0-1.84-.23-3.45-.23-5.28,0-2.52.23-4.82.46-7.34.46-4.13,1.38-7.8,2.07-11.47,2.06-8.49,4.58-17,7.11-25.24l2.52-7.79c0-.46.23-.92.23-1.38a4.3,4.3,0,0,0-1.61-3c-.68-.46-2.06-.92-3-1.38a9.34,9.34,0,0,0-1.6-.46c-.46,0-.69.46-1.38,1.38l-4.36,6.19c-3.21,4.59-7.11,9.64-9.86,14.22-4.59,7.12-9.41,14-14.23,20.88A59.75,59.75,0,0,1,399,408.34a.84.84,0,0,1-.69.23h-.23a1.8,1.8,0,0,1-.45-.92,9.43,9.43,0,0,1,.23-2.53,29,29,0,0,1,2.06-7.34,108.89,108.89,0,0,1,7.57-18.58,86.72,86.72,0,0,1,5.51-7.34l2.75-2.52a.84.84,0,0,1,.69-.23c.23,0,.46,0,.91.46l3.67,2.75a3.89,3.89,0,0,0,1.15.46c.23,0,.46-.23.69-.46a2.09,2.09,0,0,0,.69-1.61,10.17,10.17,0,0,0-.23-1.14,9.88,9.88,0,0,0-1.84-3.44,16.13,16.13,0,0,0-10.78-4.59c-.69,0-1.38.23-1.83.23a3.06,3.06,0,0,0-1.84.69c-1.83,1.37-3.67,2.29-5.28,4.58-.45.23-.68.92-1.14,1.61s-.91,1.22-1.35,1.83h-7.37a47.94,47.94,0,0,0-9.4.92,59.13,59.13,0,0,0-17.44,5.51l-3,.92a1.43,1.43,0,0,1-.92.22c-.23,0-.46,0-.92-.45a2.31,2.31,0,0,1-1.14-.92c-2.07-1.84-3.9-3.21-6-4.82a52.08,52.08,0,0,0-25.46-8.72L317.37,362h-2.76a57.26,57.26,0,0,0-8.48-.69c-.23,0-.23-.46-.69-.46-.69-.23-1.61-.46-1.61-1.15,0-.23.23-.23.23-.46a8.76,8.76,0,0,1,1.15-3.44,35.87,35.87,0,0,1,4.82-8.71c2.29-3.67,5-7.12,7.57-10.56,3.21-4.13,6.65-8,9.86-11.7,4.36-3.9,8.72-8,13.53-11.7l10.56-6.88a64.64,64.64,0,0,1,16.05-7.57,19.31,19.31,0,0,1,6.2-.92,14.06,14.06,0,0,1,3,.23c.23,0,.92,0,1.15.23a1.93,1.93,0,0,1,1.6,1.61v.23a2.22,2.22,0,0,1-.45,1.61c-.69,1.6-.69,3.66-1.61,4.81a73.88,73.88,0,0,1-4.82,10.78,56.24,56.24,0,0,1-6.42,11.47,90.21,90.21,0,0,1-8.72,12.16,25.79,25.79,0,0,0-2.75,4.13,3.89,3.89,0,0,0-.46,1.15c0,.69.46.92,1.61,1.6h.22c.46-.23.46-.23.69-.68a4.63,4.63,0,0,0-.2-.77,4.27,4.27,0,0,0,.52.62l-.32.15a1,1,0,0,1-.23.68c-.46.46-.46.69-.46.92,0,.46,0,.69.69.69h.92a.71.71,0,0,0-.23.46v.69H358c.92,0,1.61,0,2.06-.69a9,9,0,0,0,3.45-2.52,62.66,62.66,0,0,0,9.17-9.87,105,105,0,0,0,14-24.09,21.25,21.25,0,0,0,2.06-6.42c0-.69.23-1.38.23-2.06a13.92,13.92,0,0,0-2.52-8l-1.84-2.53c-1.61-1.37-3-2.29-4.59-3.44a21.13,21.13,0,0,0-8-3.21,25.1,25.1,0,0,0-4.13-.46,26.41,26.41,0,0,0-8.48,1.61,51.18,51.18,0,0,0-7.57,3,69.16,69.16,0,0,0-9.18,4.82c-3.21,1.6-6,3.67-8.72,5.27-2.06,1.84-4.36,3.44-6.65,5.28-3,2.52-5.5,5.05-8.49,7.8a35.38,35.38,0,0,0-3,2.75,81.48,81.48,0,0,0-7.34,8.49l-2.07,2.29-5,7.35a54.46,54.46,0,0,0-4.59,8.94,22.69,22.69,0,0,0-2.52,7.57,10.72,10.72,0,0,0,2.06,6.43,14.43,14.43,0,0,0,3,4.58c1.84,2.53,3.9,4.82,6.89,5.74a36.16,36.16,0,0,0,4.81,1.37,141.66,141.66,0,0,0,17.21.69,48.85,48.85,0,0,1,16.06,2.53A50.24,50.24,0,0,1,354.76,379c.23.69.69.92.92,1.61a.23.23,0,0,1,.23.23c0,.23,0,.23-.23.23a2.3,2.3,0,0,1-1.15.92,162.8,162.8,0,0,0-17,10.78c-5,3.9-9.86,8-14.68,11.93a90.34,90.34,0,0,0-8.26,7.79A133.13,133.13,0,0,0,297,432.88a40.85,40.85,0,0,0-3.67,7.8,10.41,10.41,0,0,0-.69,3.67v1.15a8.59,8.59,0,0,0,2.29,5.73,11.55,11.55,0,0,0,2.76,3,15.83,15.83,0,0,0,7.11,4.58A25.57,25.57,0,0,0,313,460h2.29c4.59-.46,8.49-2.06,12.85-3.44,5.73-2.75,10.78-6.19,16.29-9.86l8.48-7.57a55.33,55.33,0,0,0,8.26-9.64,48.63,48.63,0,0,0,8.26-27.76,47.74,47.74,0,0,0-.23-5.73,2.5,2.5,0,0,1-.23-1.15c-.92-3.21-1.38-5.73-2.75-8.26-.69-1.14-.92-1.6-.92-2.06s.69-.92,2.07-1.61l5.5-2.29c6.42-3.21,11.24-3.9,17.44-4.82a28.14,28.14,0,0,1,6-1c-1.23,1.94-2.4,3.93-3.5,6a85.85,85.85,0,0,0-3.9,10.78,37.28,37.28,0,0,0-2.3,12.62c0,.91.23,2.06.23,3,0,.46-.23.69-.23,1.15a6.39,6.39,0,0,0,2.53,5c2.29,2.07,4.13,4.36,6.65,5.28a11.9,11.9,0,0,0,2.52.46,2.92,2.92,0,0,0,1.38-.23c1.61-.69,3.67-1.61,4.82-3.21a73.8,73.8,0,0,0,5.73-6.66,124.07,124.07,0,0,0,8-13.07L427,380.58c.46-1.38.23-2.75,1.83-3.21v.46c0,1.6-.91,3.21-1.37,4.58a127.22,127.22,0,0,0-4.13,22.71,5.72,5.72,0,0,0,.23,1.84c0,1.15.23,2.52.23,3.67A17.25,17.25,0,0,0,426.1,418a19.86,19.86,0,0,0,8.72,7.57,11.12,11.12,0,0,0,5.05,1.38c2.29,0,4.35-.92,7.11-2.53l6.19-5.5c2.07-3.21,4.59-6.2,6.42-8.95,2-2.84,3.92-5.68,5.77-8.54a7.14,7.14,0,0,0,.2,1.2,5.06,5.06,0,0,0-.23,1.84v.91c.69,3.67.69,7.34,1.14,11.24a50.69,50.69,0,0,0,1.15,5.74,3,3,0,0,0,2.07,2.29,37.75,37.75,0,0,0,6.65,2.3,2.07,2.07,0,0,0,1.15.23,3.66,3.66,0,0,0,2.29-1.15,4.26,4.26,0,0,0,.46-1.61c1.6-4.13,2.75-8.25,3.9-12.38,1.15-3.67,3-7.34,4.82-11.7A297.8,297.8,0,0,1,500,370a156.21,156.21,0,0,1,8.71-19C511,345.71,514,340.89,518.55,337.45ZM360,394.57a38.12,38.12,0,0,1-.45,5.51A50.82,50.82,0,0,1,352,421a39.84,39.84,0,0,1-5.74,6.66l-9.18,9.17c-2.06,1.84-4.35,3-6.19,4.59a81.77,81.77,0,0,1-8.72,6,45.34,45.34,0,0,1-12.84,5.05,21.81,21.81,0,0,1-5.74.69c-.46,0-.69-.23-1.37-.23a4.48,4.48,0,0,1-3.22-3.67V445.5a57.83,57.83,0,0,1,4.59-9.18,121.34,121.34,0,0,1,9.64-11.93,209.12,209.12,0,0,1,19-18.58,161.13,161.13,0,0,1,17-12.39,56.72,56.72,0,0,1,8.26-5,1.19,1.19,0,0,1,.92-.46c0-.23.23-.23.46-.23s.46.23.46.69a6.75,6.75,0,0,1,.46,3v.92a1.43,1.43,0,0,0,.22.92Z" transform="translate(-292.2 -287.21)"/><path class="cls-3" d="M551.35,351c2.29-5.28,5.28-10.1,9.86-13.54l1.15-1.38c0-.22,0-.91-.23-.91-.92,0-1.37-.46-1.83-1.38-.23-.46-1.38-.46-1.84-.69a1.69,1.69,0,0,0-1.38-.46,6,6,0,0,0-2.29.92c-1.15,1.15-2.52,1.84-3.21,2.52a26.73,26.73,0,0,0-4.59,5.74,112.2,112.2,0,0,0-6.42,11.47c-3.21,6.42-5.74,12.62-8.49,19l-7.34,20.42-3.67,8.94a.49.49,0,0,1-.46.46l-.46-.46v-.46c-.23-3-.23-5.73-.23-8.48,0-1.15.23-2.53.23-3.67a64.44,64.44,0,0,0,.23-6.66v-2.75c0-3,.46-6.19.46-9.18h-.23c.23-2.75.69-5.5.69-8.25a19.63,19.63,0,0,0-.23-3.67,4.81,4.81,0,0,0-.92-1.38c0-.23-.69-.69-1.15-.92-.22-.23-.45-.46-.68-.46s-.23.23-.46.23a.84.84,0,0,1-.69.23,8.17,8.17,0,0,0-2.07-.92h-.68a1.47,1.47,0,0,0-1.61,1.15,24.19,24.19,0,0,0-1.38,4.36c0,2.29-.91,4.36-1.6,6.65a2.07,2.07,0,0,0-.23,1.15v6c0,1.15-.69,2.53-.69,3.9-.23,1.61,0,3.22-.46,4.82,0,1.15-.46,2.07-.46,3.21v.69a3.91,3.91,0,0,0,.23,1.61c0,.69.23,1.14.23,1.83,0,1.84-.46,3.9-.46,5.51v3.9a9.36,9.36,0,0,0,.23,2.52,5.06,5.06,0,0,0-.23,1.84v.91c.69,3.67.69,7.34,1.15,11.24a50.69,50.69,0,0,0,1.15,5.74,3,3,0,0,0,2.06,2.29,38.32,38.32,0,0,0,6.65,2.3,2.07,2.07,0,0,0,1.15.23,3.66,3.66,0,0,0,2.3-1.15,4.43,4.43,0,0,0,.45-1.61A125.35,125.35,0,0,0,526.8,412c1.15-3.67,3-7.34,4.82-11.7a297.8,297.8,0,0,1,11-30.28A157.82,157.82,0,0,1,551.35,351Z" transform="translate(-292.2 -287.21)"/><path class="cls-4" d="M643.11,374.61c-.46-.68-.46-1.6-1.61-1.83-.46,0-.69-.23-.92-.23a3.75,3.75,0,0,1-1.14.46c-3.9,2.29-8.49,4.36-12.62,6.42-1.61.92-17.66,6.88-19.27,7.57h-.23c-.23,0-.23,0-.23-.23v-.23a4.23,4.23,0,0,1,0-2.75c.46-4.82.46-9.63.69-14.45a22.15,22.15,0,0,0-.23-3.9c-.46-2.75,0-5.05-3.21-5.74l-1.61-.69-5.5-.22a2.17,2.17,0,0,0-1.84,1.6c-1.83,2.53-3.21,5.51-4.81,7.8a21.71,21.71,0,0,0-3.22,5.28c-3.44,4.81-8,9.17-11.7,14.22C572,393,566.49,397.32,561.44,401a10.18,10.18,0,0,1-2.75,1.14c-.23.46-.23.46-.69.46s-.46-.69-.46-.92v-.23a17.06,17.06,0,0,1,.92-3.21,116.8,116.8,0,0,1,6.65-14.45,36.23,36.23,0,0,0,2.75-10.55v-.92c0-1.61-.45-2.75-1.6-3.21a2.92,2.92,0,0,0-1.38-.23c-6.19,0-8.94,10.55-8.94,10.55a5.79,5.79,0,0,1-1.84,3.21c-2.29,5.05-4.59,9.41-5.51,14.68a4.68,4.68,0,0,0-.22,1.61v1.61a3.93,3.93,0,0,0,1.37,3.44,17.33,17.33,0,0,0,5.28,7.34,6.63,6.63,0,0,0,3.67,1.14,5.94,5.94,0,0,0,3-.45,55,55,0,0,0,9.87-6.89,96.15,96.15,0,0,0,12.84-14.22c3.21-4.82,6.42-9.86,9.18-14.91.46-.46.46-1.83.91-1.83h.46a1.71,1.71,0,0,1,.46,1.14c0,.23-.23.46-.23.69v.69c0,.46-.23,1.6-.23,2.06-.68,6.2-1.37,13.08-2.29,19.5v.23c.69,0,5.05-5.05,4.82-4.13a6.08,6.08,0,0,1-2.53,4.13,153.18,153.18,0,0,0-16,16.29c-3.67,4.36-7.34,8.72-10.79,13.3-2.52,3-4.58,6.43-7.11,9.64-2.75,3.9-5.27,7.8-7.8,11.93a126.26,126.26,0,0,0-9.63,17.2,43.62,43.62,0,0,0-4.82,15.83,24.88,24.88,0,0,0-.23,4.13v1.84c.92,6.88,4.82,11.47,10.55,14.68a19.54,19.54,0,0,0,3.9.92h1.15c3.67,0,7.11-1.15,10.78-2.53a42.4,42.4,0,0,0,17.21-14c4.36-5.28,7.34-11.24,10.09-17.21a159.29,159.29,0,0,0,6.2-16.28,50.23,50.23,0,0,0,2.06-7.8,83.17,83.17,0,0,0,2.29-10.33,107.71,107.71,0,0,0,1.84-11.47l3.21-27.07a3.47,3.47,0,0,1,1.61-3.21c1.6-1.14,12.15-7.34,14.22-8.49l18.81-10.32c.23,0,.46-.23.69-.46C643.11,374.84,643.34,374.61,643.11,374.61Zm-48,38.31c-.69,4.82-1.14,9.87-2.06,14.69a198.17,198.17,0,0,1-4.82,20.18,172.89,172.89,0,0,1-6.88,19.27c-1.84,3.67-3.44,7.34-5.51,11a80.42,80.42,0,0,1-8,10.1,45,45,0,0,1-11,7.57,38.9,38.9,0,0,1-6.42,1.83h-.69a3.35,3.35,0,0,1-3-1.6,13.18,13.18,0,0,1-.92-3.22,37.46,37.46,0,0,1-.46-5.27v-1.84a16.17,16.17,0,0,1,.69-3.21,56.69,56.69,0,0,1,6.2-16.74c2.29-4.13,4.58-8.49,7.11-12.62a193.58,193.58,0,0,1,11.24-16.75l6.42-8.94,9.64-11.7,3.9-4.36,4.35-4.13h.46a.8.8,0,0,1,.46.23Z" transform="translate(-292.2 -287.21)"/></svg>