<svg id="Layer_1" xmlns="http://www.w3.org/2000/svg" viewBox="0 0 64 64"><style>.st0{fill:#fff}</style><path class="st0" d="M16.4 55.2s-.4.5-1.1.6c-.7.1-1.4-.4-1.4-.4L10.6 52s-.6-.6-.6-1.3.6-1.3.6-1.3l17.2-17.2s.1-.1.1-.2-.1-.3-.1-.3L10.6 14.5s-.6-.6-.6-1.3c0-.7.6-1.3.6-1.3L14 8.5s.6-.6 1.4-.4c.7.1 1.1.6 1.1.6S38.6 31 38.8 31.1c.1.1.6.4.6.9 0 .3-.4.6-.6.9-.4.3-22.4 22.3-22.4 22.3z"/><path d="M24.3 62.4s-.5.7-1.4.8c-1 .2-1.8-.6-1.8-.6l-4.4-4.5s-.7-.8-.7-1.7.7-1.6.7-1.6l22.5-22.6s.1-.1.1-.3-.1-.3-.1-.3L16.8 9.2s-.7-.7-.7-1.6.7-1.7.7-1.7l4.4-4.5s.7-.7 1.8-.6c.9.1 1.4.8 1.4.8s29.1 29 29.2 29.2c.1.2.4.6.4 1.2 0 .4-.1.8-.4 1.1L24.3 62.4z"/></svg>