<svg id="Layer_1" xmlns="http://www.w3.org/2000/svg" viewBox="0 0 64 64"><style>.st0{fill:#fff}</style><path class="st0" d="M47.6 8.8s.4-.5 1.1-.6c.8-.1 1.4.4 1.4.4l3.4 3.4s.6.6.6 1.3c0 .7-.6 1.2-.6 1.2L36.2 31.8s-.1.1-.1.2.1.3.1.3l17.2 17.2s.6.6.6 1.3c0 .7-.6 1.3-.6 1.3L50 55.5s-.6.6-1.4.4c-.7-.1-1.1-.6-1.1-.6L25.3 32.9c-.1-.1-.6-.4-.6-.9 0-.3.4-.6.6-.9L47.6 8.8z"/><path d="M39.7 1.6s.5-.7 1.4-.8c1-.2 1.8.6 1.8.6l4.4 4.5s.7.8.7 1.7c0 .9-.7 1.6-.7 1.6L24.8 31.7s-.1.1-.1.3.1.3.1.3l22.5 22.5s.7.7.7 1.6c0 .9-.7 1.7-.7 1.7l-4.4 4.5s-.8.7-1.8.6c-.9-.1-1.4-.8-1.4-.8s-29.1-29-29.2-29.2c-.2-.2-.5-.6-.5-1.2 0-.4.1-.8.4-1.1L39.7 1.6z"/></svg>