<svg xmlns="http://www.w3.org/2000/svg" viewBox="0 0 64 64"><path d="M31.4 54.8V37.1l-15.2-8.9L.9 37.1v17.8l15.2 8.8 15.3-8.9zm-13.7 4.4V46.8l10.6-6.2V53l-10.6 6.2zm-1.6-27.4L26.8 38l-10.6 6.2L5.5 38l10.6-6.2zM4 40.7l10.6 6.2v12.4L4.1 53.1 4 40.7zm43.8-12.4l-15.2 8.8v17.8l15.2 8.8 15.3-8.9V37.1l-15.3-8.8zm0 3.5L58.4 38l-10.6 6.2L37.2 38l10.6-6.2zm-12.1 8.9l10.6 6.2v12.4l-10.5-6.1-.1-12.5zm13.6 18.5V46.8L60 40.7V53l-10.7 6.2zm-2.1-50L32 .3 16.8 9.1v17.8L32 35.7l15.3-8.9-.1-17.6zM32 3.9L42.6 10 32 16.2 21.4 10 32 3.9zm-12.1 8.8l10.6 6.2v12.4L20 25.2l-.1-12.5zm13.6 18.6V18.9l10.6-6.2v12.4l-10.6 6.2z"/></svg>