<svg xmlns="http://www.w3.org/2000/svg" viewBox="0 0 64 64"><path d="M59.1 16.5h-7.8s-2.2 0-3.9-3.9c-.8-2-1.7-3.9-3.9-3.9H28.1c-2.1 0-3.1 1.9-3.9 3.9-1.6 3.9-3.9 3.9-3.9 3.9h-3.9c0-2.1-1.7-3.9-3.9-3.9H8.8c-2.1 0-3.9 1.7-3.9 3.9-2.1 0-3.9 1.7-3.9 3.9v31c0 2.1 1.7 3.9 3.9 3.9h54.3c2.1 0 3.9-1.7 3.9-3.9v-31c-.1-2.2-1.8-3.9-4-3.9zm0 34.9H4.9V35.9h17.6c.9 6.6 6.5 11.6 13.4 11.6 7 0 12.7-5.3 13.4-12.1h9.8v16zM26.2 33.9c0-5.3 4.3-9.7 9.7-9.7s9.7 4.3 9.7 9.7c0 5.3-4.3 9.7-9.7 9.7s-9.7-4.3-9.7-9.7zM59.1 32h-9.9c-.9-6.6-6.5-11.6-13.4-11.6s-12.3 5-13.3 11.6H4.9V20.4h15.5c2.3 0 5.6-1.6 7.5-6.3.3-.8.5-1.2.7-1.5h14.7c.3.4.6 1.2.7 1.5 2.5 5.9 6.6 6.2 7.4 6.2h7.8V32z"/><circle cx="10.7" cy="26.2" r="1.9"/></svg>