<svg xmlns="http://www.w3.org/2000/svg" viewBox="0 0 64 64"><path d="M39.5 32.3s-.1-.1-.1-.3c0-.2.1-.3.1-.3L61.8 9.4s.7-.7.7-1.6-.7-1.7-.7-1.7l-4.4-4.5s-.8-.7-1.8-.6c-.9.1-1.3.8-1.3.8S40.6 15.6 32 24.2C23.4 15.6 9.7 1.8 9.7 1.8s-.5-.6-1.4-.8c-1-.2-1.8.6-1.8.6L2.2 6.1s-.7.8-.7 1.7.7 1.6.7 1.6l22.4 22.4s.1.1.1.3c0 .2-.1.3-.1.3L2.2 54.6s-.7.7-.7 1.6.7 1.7.7 1.7l4.4 4.5s.8.7 1.8.6c.9-.1 1.3-.8 1.3-.8S23.4 48.4 32 39.8l22.3 22.3s.5.7 1.3.8c1 .2 1.8-.6 1.8-.6l4.4-4.5s.7-.8.7-1.7c0-.9-.7-1.6-.7-1.6L39.5 32.3z"/></svg>