<svg xmlns="http://www.w3.org/2000/svg" viewBox="0 0 64 64"><path d="M32 1C14.9 1 1 14.9 1 32s13.9 31 31 31 31-13.9 31-31S49.1 1 32 1zm0 56.9C17.7 57.9 6.1 46.3 6.1 32S17.7 6.1 32 6.1c14.3 0 25.9 11.6 25.9 25.9S46.3 57.9 32 57.9z"/><path d="M51.1 25.9v-.5s0-.1-.1-.1v-.1s0-.1-.1-.1l-.1-.1-.1-.1-.1-.1-.1-.1-.1-.1-17.5-11.5c-.6-.4-1.3-.4-1.8 0L13.6 24.8s-.1 0-.1.1l-.1.1-.1.1-.1.1-.1.1s0 .1-.1.1v.1s0 .1-.1.1v12.7c0 .1 0 .1.1.1 0 .1 0 .1.1.1 0 .1.1.1.1.1 0 .1 0 .1.1.1 0 .1.1.1.1.1l.1.1c0 .1.1.1.1.1l.1.1c0 .1.1.1.1.1l.1.1c0 .1.1.1.1.1l.1.1h.1l17.5 11.7c.3.2.6.3.9.3.3 0 .6-.1.9-.3L51 39.5s.1 0 .1-.1l.1-.1.1-.1.1-.1.1-.1s0-.1.1-.1v-.1s0-.1.1-.1V26.1c-.5 0-.5-.1-.6-.2zm-17.5-8.4l12.9 8.6-5.7 3.9-7.1-4.8v-7.7zm-3.3.1v7.7L23.2 30l-5.8-3.9 12.9-8.5zM16.1 29.2l4.1 2.8-4.1 2.8v-5.6zm14.2 17.2l-12.9-8.6 5.8-3.9 7.1 4.8v7.7zM32 35.9L26.2 32l5.8-3.9 5.8 3.9-5.8 3.9zm1.6 10.5v-7.7l7.1-4.8 5.8 3.9-12.9 8.6zm14.3-11.7L43.7 32l4.1-2.8v5.5z"/></svg>