<svg id="Layer_1" xmlns="http://www.w3.org/2000/svg" xmlns:xlink="http://www.w3.org/1999/xlink" viewBox="0 0 64 64"><style>.st0{clip-path:url(#SVGID_2_)}</style><defs><path id="SVGID_1_" d="M12.5.8h39v62.5h-39z"/></defs><clipPath id="SVGID_2_"><use xlink:href="#SVGID_1_" overflow="visible"/></clipPath><path class="st0" d="M22.8 63.1c.6.3 1.2-.4.9-1-2-3.1-3.9-8.5-.9-15.3C27.9 35.5 31 29.6 31 29.6s1.6 6.9 6.1 13c4.3 5.9 6.7 13.3 2.9 19.5-.4.6.3 1.3.9 1 4.7-2.4 10-7.2 10.6-16.8.2-2.9-.1-7-1.8-12.2-2.1-6.6-4.7-9.6-6.2-10.9-.4-.4-1.1-.1-1.1.5.4 7.1-2.2 8.9-3.7 4.8-.6-1.6-1-4.4-1-7.8 0-5.7-1.6-11.5-5.3-16.3-.9-1.2-2.1-2.4-3.3-3.4-.5-.4-1.1 0-1.1.6.3 3.8 0 14.9-9.6 28.1-8.8 12.2-5.4 21.6-4.2 24.2 2.3 4.7 5.5 7.5 8.6 9.2z"/></svg>