<svg xmlns="http://www.w3.org/2000/svg" viewBox="0 0 64 64"><path d="M8.9 16.5s-.5 9.3 13.4 23C36.2 53 37.7 58.6 37 62.4h10.1s.9-15.8-14.7-26.9c0 0-10.8-9.6-12.5-17.1 0 0-5.3 0-8.9-3-.1 0-2.1-1.2-2.1 1.1"/><path d="M30.4 38.1c2.8 2 5 4.1 6.8 6.3 1.4-1.5 2.8-2.9 4.5-4.6 13.9-13.6 13.4-23.3 13.4-23.3 0-2.3-2-1-2-1-3.6 2.9-8.9 3-8.9 3-1.7 7.6-12.5 17.3-12.5 17.3-.7.5-1.4 1-2.1 1.6.5.4.8.7.8.7m-.1 14.7c-1.8-2.3-4.2-5-7.3-8.2-6.5 9.2-6 18.5-6 18.5h10.1c-.5-2.5-.1-5.4 3.2-10.3M27 19.2h9.9s1.3-.2 1 1.6c-.5 2.5-5.8 7.5-5.8 7.5s-3.9-3.6-5.7-7.1c0-.1-.7-2 .6-2M49.6 8.9c0 2.4-1.9 4.4-4.4 4.4-2.4 0-4.4-1.9-4.4-4.4 0-2.4 1.9-4.4 4.4-4.4 2.4 0 4.4 1.9 4.4 4.4m-25.7 0c0 2.4-1.9 4.4-4.4 4.4s-4.4-1.9-4.4-4.4c0-2.4 1.9-4.4 4.4-4.4s4.4 1.9 4.4 4.4M37 5.3c0 2.4-1.9 4.4-4.4 4.4-2.4 0-4.4-1.9-4.4-4.4 0-2.4 1.9-4.4 4.4-4.4C35 .9 37 3 37 5.3"/></svg>