<svg xmlns="http://www.w3.org/2000/svg" viewBox="0 0 64 64"><path d="M32.272 42.843h-3.6v-17.1h3.6v17.1zm6-13.9h4.2c1.1 0 1.6.6 1.6 1.6v1.6c0 1-.6 2.1-1.6 2.1h-4.2v-5.3zm7.1 14h4l-4.2-5.9c1.4-.5 2.2-2 2.2-3.6v-4.4c0-2-1.3-3.3-3.3-3.3h-9.4v17.2h3.6v-5.7h3.4l3.7 5.7z"/><path d="M62.672 42.843l-5.1-17.1h-4.9l-5.1 17.1h3.6l4-13.3 2 6.7h-2l-1.4 3.1h4.3l1.1 3.5h3.5zm-36.7-3.6v-13.5h-3.5v12.7c0 2-.9 2.2-1.2 2.2-.4.2-1.2.3-1.2.3l.8 3c5.8-.1 5.1-4.7 5.1-4.7m-24.7-13.4s-.2 3.5 5 8.6 5.8 7.2 5.5 8.6h3.8s.3-5.9-5.5-10.1c0 0-4-3.6-4.7-6.4 0 0-2 0-3.4-1.1.1-.1-.7-.5-.7.4"/><path d="M9.272 33.843c1 .7 1.9 1.5 2.6 2.3l1.7-1.7c5.2-5.1 5-8.7 5-8.7 0-.9-.7-.4-.7-.4-1.4 1.1-3.4 1.1-3.4 1.1-.7 2.8-4.7 6.5-4.7 6.5-.3.2-.5.4-.8.6l.3.3m0 5.6c-.7-.9-1.6-1.9-2.7-3.1-2.4 3.5-2.2 6.9-2.2 6.9h3.8c-.3-.9-.1-2 1.1-3.8m-1.2-12.6h3.7s.5-.1.4.6c-.2.9-2.2 2.8-2.2 2.8s-1.5-1.4-2.1-2.7c0 0-.3-.7.2-.7m8.4-3.9c0 .9-.7 1.6-1.6 1.6-.9 0-1.6-.7-1.6-1.6 0-.9.7-1.6 1.6-1.6s1.6.7 1.6 1.6m-9.6 0c0 .9-.7 1.6-1.6 1.6s-1.6-.7-1.6-1.6c0-.9.7-1.6 1.6-1.6.9 0 1.6.7 1.6 1.6m4.9-1.3c0 .9-.7 1.6-1.6 1.6-.9 0-1.6-.7-1.6-1.6 0-.9.7-1.6 1.6-1.6s1.6.7 1.6 1.6"/></svg>