<svg xmlns="http://www.w3.org/2000/svg" viewBox="0 0 64 64"><path d="M4.5 58.5c0 2.7 2.2 4.9 4.9 4.9h45.2c2.7 0 4.9-2.2 4.9-4.9V21.2c0-2.7-1.6-6.5-3.5-8.4L47.3 4C45.4 2.1 41.6.5 38.9.5H9.4C6.7.5 4.5 2.7 4.5 5.4m48.8 10.2c.2.2.4.4.6.7h-10v-10c.3.2.5.4.7.6l8.7 8.7zM8.4 5.5c0-.5.5-1 1-1h29.5c.3 0 .6 0 1 .1v15.6h15.6c.1.4.1.7.1 1v37.3c0 .5-.5 1-1 1H9.4c-.5 0-1-.5-1-1"/><path d="M31.3 47.5H18.1c-2.3 0-4.2-1.9-4.2-4.2V30c0-2.3 1.9-4.2 4.2-4.2h13.3c2.3 0 4.2 1.9 4.2 4.2v13.3c-.1 2.3-2 4.2-4.3 4.2zm16.4-.1L37.6 39v-4.2l10.1-8.4c1.1-.9 2.5.2 2.5 2.1v16.7c0 1.9-1.4 3.1-2.5 2.2z"/></svg>