<svg id="Layer_1" xmlns="http://www.w3.org/2000/svg" viewBox="0 0 64 64"><style>.st0{fill:#fff}</style><path class="st0" d="M39.1 46.4c4.9 3.9 9.8 7.8 14.7 11.6.1-.2.1-.4.2-.6.3-1.1.7-2.2 1-3.3.1-.4.1-.7 0-1.1-.2-.5-.5-1-1-1.4-1.6-1.2-3.1-2.5-4.7-3.7l-3.6-2.7c-.3-.3-.7-.5-1.1-.7-.5-.2-.9-.4-1.4-.3-.1 0-.2 0-.3.1-1.1.6-2.1 1.1-3.2 1.7-.2.1-.4.2-.6.4zM24 1.1v3c0 2.5.1 4.9.1 7.4 0 1.9.1 3.9.2 5.8 0 .4.1.8.1 1.1 0 .2.1.3.4.4h.5c.4-.1.8-.2 1.2-.4.5-.2.9-.5 1.3-.9s.8-.8 1.1-1.3c.1-.1.1-.1.1-.2v-2.9c0-3-.1-6-.1-9.1 0-.2-.1-.5-.2-.7-.2-.3-.4-.5-.7-.7-.6-.5-1.3-.9-2.1-1.2-.5-.3-1.1-.4-1.7-.4 0 0-.1 0-.2.1z"/><path d="M38.5 63h-.2c-1.8-.3-3.4-.9-5-1.7-1.6-.8-3.2-1.9-4.6-3-1.3-1.1-2.5-2.2-3.7-3.4-1.8-1.9-3.4-3.9-5-5.9-1.3-1.8-2.6-3.6-3.8-5.4-.5-.7-1-1.4-1.4-2.2-.7-1.2-1.2-2.4-1.7-3.6-.7-1.6-1.2-3.3-1.7-5-.4-1.6-.8-3.2-1.1-4.8-.2-1.1-.4-2.2-.5-3.3-.1-.9-.2-1.8-.3-2.6-.1-.8-.2-1.6-.2-2.4-.1-.7-.1-1.4-.1-2.1 0-1-.1-2.1-.1-3.1v-.9c0-1.2.2-2.5.5-3.6.5-1.6 1.2-2.9 2.3-4.1 1-1.1 2.2-1.9 3.5-2.6 1.2-.6 2.4-1 3.7-1.3 1-.2 2.1-.4 3.1-.4h.2c.2 6 .3 12 .5 18-.1.1-.3.1-.4.2-.8.4-1.4.9-2 1.6-.5.6-.7 1.3-.9 2-.2.9-.1 1.8.1 2.7.1.3.2.6.3 1 0 .1.1.1.1.2 2.3 4.6 4.6 9.1 7.1 13.7.9 1.7 1.8 3.3 2.8 4.9.3.5.6.9.9 1.4.4.6.9 1.1 1.6 1.4.5.3 1 .4 1.6.5.8.1 1.6-.1 2.4-.3.5-.2.9-.4 1.4-.6 4.7 3.7 9.5 7.5 14.3 11.2l-.9.6c-1.3.7-2.7 1.4-4 1.9-1.6.6-3.3 1.2-5 1.6L42 63h-3.5z"/><path d="M39.1 46.4l.6-.3c1.1-.6 2.1-1.1 3.2-1.7.1 0 .2-.1.3-.1.5 0 1 .1 1.4.3.4.2.8.4 1.1.7l3.6 2.7c1.6 1.2 3.1 2.5 4.7 3.7.5.4.8.8 1 1.4.1.4.1.7 0 1.1-.3 1.1-.7 2.2-1 3.3-.1.2-.1.4-.2.6-5-4-9.8-7.9-14.7-11.7zM24 1.1h.3c.6 0 1.2.1 1.7.3.7.2 1.4.6 2 1.1.3.2.5.5.7.7.1.2.2.4.2.7 0 3 .1 6 .1 9.1v2.9c0 .1 0 .2-.1.2-.3.4-.7.9-1.1 1.3-.4.4-.8.6-1.3.9-.4.2-.8.3-1.2.4-.2 0-.3.1-.5 0-.2 0-.3-.1-.4-.4 0-.4-.1-.8-.1-1.1-.1-1.9-.2-3.9-.2-5.8 0-2.4 0-4.9-.1-7.4V1.1z"/></svg>