<svg xmlns="http://www.w3.org/2000/svg" viewBox="0 0 64 64"><path d="M21.1 60.9c2.2-2.8 3.4-6 4.3-9.3.5-1.8 2.4-9.2 2.4-9.2 1.3 2.4 4.9 4.4 8.9 4.4 11.6 0 20-10.7 20-24C56.7 10.1 46.3.5 32.9.5 16.2.6 7.4 11.8 7.4 23.9c0 5.7 3 12.7 7.8 14.9.7.3 1.1.2 1.3-.5.1-.5.8-3.2 1.1-4.4.1-.4.1-.7-.3-1.1-1.6-1.9-2.9-5.5-2.9-8.8 0-8.5 6.4-16.7 17.4-16.7 9.5 0 16.1 6.5 16.1 15.7 0 10.4-5.3 17.7-12.1 17.7-3.8 0-6.6-3.1-5.7-7 1.1-4.6 3.2-9.6 3.2-12.9 0-3-1.6-5.4-4.9-5.4-3.9 0-7 4-7 9.4 0 3.4 1.2 5.7 1.2 5.7s-3.8 16.1-4.5 19.1c-.8 3.3-.5 8-.1 11.1l.6 2.6c-.1.1 1.2-.8 2.5-2.4z"/></svg>