<svg xmlns="http://www.w3.org/2000/svg" viewBox="0 0 64 64"><path d="M20.6 1H1v62h16.5V20.6h3.1v-3.1H63V1H20.6zm-5.1 23.8h-3.1c-.6 0-1 .5-1 1 0 .6.5 1 1 1h3.1V31H9.3c-.6 0-1 .5-1 1 0 .6.5 1 1 1h6.2v4.1h-3.1c-.6 0-1 .5-1 1s.5 1 1 1h3.1v4.1H9.3c-.6 0-1 .5-1 1 0 .6.5 1 1 1h6.2v4.1h-3.1c-.6 0-1 .5-1 1 0 .6.5 1 1 1h3.1v4.1H9.3c-.6 0-1 .5-1 1s.5 1 1 1h6.2v3.1H3.1V20.6h12.4v4.2zm3.1-6.2H3.1V3.1h15.5v15.5zm42.3-3.1h-3.1V9.3c0-.6-.5-1-1-1s-1 .5-1 1v6.2h-4.1v-3.1c0-.6-.5-1-1-1-.6 0-1 .5-1 1v3.1h-4.1V9.3c0-.6-.5-1-1-1-.6 0-1 .5-1 1v6.2h-4.1v-3.1c0-.6-.5-1-1-1s-1 .5-1 1v3.1H33V9.3c0-.6-.5-1-1-1-.6 0-1 .5-1 1v6.2h-4.1v-3.1c0-.6-.5-1-1-1-.6 0-1 .5-1 1v3.1h-4.1V3.1h40.3v12.4z"/></svg>