<svg xmlns="http://www.w3.org/2000/svg" viewBox="0 0 64 64"><path d="M44.4.4H19.6C17.1.4 15 2.4 15 5v54.1c0 2.5 2 4.6 4.6 4.6h24.9c2.5 0 4.6-2 4.6-4.6V4.9C49 2.4 47 .4 44.4.4zM28.9 3.1H35c.2 0 .4.2.4.4s-.2.4-.4.4h-6.1c-.2 0-.4-.2-.4-.4 0-.3.2-.4.4-.4zm-6-1c.4 0 .6.3.6.6 0 .4-.3.6-.6.6-.4 0-.6-.3-.6-.6-.1-.3.2-.6.6-.6zM20 1.7c.6 0 1 .5 1 1s-.5 1-1 1c-.6 0-1-.5-1-1s.4-1 1-1zm13.6 59.6h-3.2c-1 0-1.8-.8-1.9-1.8 0-1 .8-1.8 1.8-1.9h3.3c1 0 1.8.8 1.9 1.8 0 1.1-.8 1.9-1.9 1.9zm13.5-5.1H16.9V7.8H47v48.4z"/></svg>