<svg xmlns="http://www.w3.org/2000/svg" viewBox="0 0 64 64"><path d="M15.6 45.3c-1.6 0-2.9.5-4 1.6s-1.6 2.4-1.6 4 .5 2.9 1.6 4 2.4 1.6 4 1.6 2.9-.5 4-1.6 1.7-2.4 1.7-4-.5-2.9-1.7-4c-1.1-1-2.4-1.6-4-1.6zm-1.2-12c0-1.8-.6-3.2-1.9-4.5-1.2-1.2-2.7-1.9-4.5-1.9s-3.2.6-4.5 1.9c-1.2 1.2-1.9 2.7-1.9 4.5 0 1.8.6 3.2 1.9 4.5C4.7 39 6.3 39.6 8 39.6s3.2-.6 4.5-1.9c1.2-1.2 1.9-2.7 1.9-4.4zM51 18.7c.8 0 1.6-.3 2.2-.9.6-.6.9-1.4.9-2.2 0-.8-.3-1.6-.9-2.2-.6-.6-1.4-.9-2.2-.9-.8 0-1.6.3-2.2.9-.6.6-.9 1.3-.9 2.2 0 .8.3 1.6.9 2.2.6.6 1.3.9 2.2.9zm-35.4-10c-1.9 0-3.6.7-4.9 2.1-1.3 1.3-2.1 3-2.1 4.9s.7 3.6 2.1 4.9c1.3 1.3 3 2.1 4.9 2.1s3.6-.7 4.9-2.1c1.3-1.3 2.1-3 2.1-4.9s-.7-3.6-2.1-4.9c-1.3-1.4-3-2.1-4.9-2.1zm45.6 21.9c-.7-.7-1.6-1.1-2.7-1.1-1 0-1.9.4-2.7 1.1-.7.7-1.1 1.6-1.1 2.7 0 1 .4 1.9 1.1 2.7.7.7 1.6 1.1 2.7 1.1 1 0 1.9-.4 2.7-1.1.7-.7 1.1-1.6 1.1-2.7s-.3-2-1.1-2.7zM51 46.5c-1.2 0-2.2.4-3.1 1.3-.8.8-1.3 1.9-1.3 3.1s.4 2.2 1.3 3.1 1.9 1.3 3.1 1.3 2.2-.3 3-1.3c.8-.8 1.3-1.9 1.3-3.1s-.3-2.2-1.3-3.1c-.7-.8-1.8-1.3-3-1.3zm-17.7 7c-1.4 0-2.6.5-3.6 1.5s-1.5 2.2-1.5 3.6.5 2.6 1.5 3.6 2.2 1.5 3.6 1.5 2.6-.5 3.6-1.5 1.5-2.2 1.5-3.6-.5-2.6-1.5-3.6-2.2-1.5-3.6-1.5zm0-53.1c-2.1 0-3.9.7-5.4 2.2-1.5 1.5-2.2 3.3-2.2 5.4s.7 3.9 2.2 5.4c1.5 1.5 3.3 2.2 5.4 2.2s3.9-.7 5.4-2.2c1.5-1.5 2.2-3.3 2.2-5.4s-.7-3.9-2.2-5.4C37.2 1.2 35.4.4 33.3.4z"/></svg>