<svg xmlns="http://www.w3.org/2000/svg" viewBox="0 0 64 64"><path d="M64 12.2c-2.4 1.1-4.9 1.8-7.5 2 2.7-1.6 4.8-4.2 5.8-7.2-2.5 1.5-5.3 2.6-8.3 3.2C51.5 7.6 48.1 6 44.3 6c-7.2 0-13.1 5.9-13.1 13.1 0 1 .1 2 .4 3-10.9-.5-20.6-5.7-27-13.7-1.1 1.9-1.8 4.2-1.8 6.6 0 4.6 2.3 8.6 5.8 10.9-2.1-.1-4.2-.6-5.9-1.6v.2c0 6.4 4.5 11.6 10.5 12.8-1.1.3-2.3.5-3.4.5-.8 0-1.7-.1-2.5-.2 1.7 5.2 6.5 9 12.2 9.1-4.5 3.5-10.2 5.6-16.3 5.6-1.1 0-2.1-.1-3.1-.2 5.7 3.7 12.6 5.9 20 5.9 24.1 0 37.3-20 37.3-37.3V19c2.6-1.9 4.8-4.2 6.6-6.8z"/></svg>