<svg xmlns="http://www.w3.org/2000/svg" viewBox="0 0 64 64"><path d="M23.9 40.2h-2.4v-1.4c-.9 1.1-1.7 1.6-2.5 1.6-.7 0-1.3-.4-1.5-1-.2-.4-.3-1-.3-1.9V27.4h2.4v10.4c.1.4.2.5.5.5.5 0 .9-.4 1.4-1.1v-9.8h2.4v12.8zm-8.5-8.6c0-1.4-.3-2.4-.8-3.1-.6-.9-1.6-1.2-2.6-1.2-1.2 0-2 .4-2.7 1.2-.5.6-.8 1.7-.8 3.1v4.6c0 1.4.2 2.3.7 3 .7.8 1.8 1.2 2.8 1.2s2.1-.5 2.7-1.3c.5-.6.7-1.6.7-3v-4.5zM13 36.4c.1 1.3-.3 1.9-1 1.9s-1.1-.6-1-1.9v-5.1c-.1-1.3.3-1.9 1-1.9s1.1.6 1 1.9v5.1zm-7.1-3.2v7H3.3v-7S.7 24.6.1 23h2.7l1.8 6.7L6.4 23H9L5.9 33.2zm42.9-3.8c-.4 0-.8.2-1.2.6v7.7c.4.4.8.6 1.2.6.7 0 1-.5 1-1.8V31c-.1-1.2-.4-1.6-1-1.6zm8.4 0c-.8 0-1.1.3-1.1 1.5v1.4h2.2V31c0-1.2-.3-1.6-1.1-1.6z"/><path d="M63.5 24.4s-.4-2.6-1.5-3.8c-1.4-1.5-3.1-1.5-3.8-1.6-5.3-.4-13.3-.4-13.3-.4s-8 0-13.3.4c-.7.1-2.4.1-3.8 1.6-1.1 1.1-1.5 3.8-1.5 3.8s-.4 3.1-.4 6.1v2.9c0 3.1.4 6.1.4 6.1s.4 2.6 1.5 3.8c1.4 1.5 3.3 1.5 4.2 1.6 3 .3 12.9.4 12.9.4s8 0 13.3-.4c.7-.1 2.4-.1 3.8-1.6 1.1-1.1 1.5-3.8 1.5-3.8s.4-3.1.4-6.1v-2.9c0-3-.4-6.1-.4-6.1zM34.2 40.2h-2.5V25.6H29v-2.4h8v2.4h-2.8v14.6zm9.2 0H41v-1.4c-.9 1.1-1.7 1.6-2.5 1.6-.7 0-1.3-.4-1.5-1-.2-.4-.3-1-.3-1.9v-10h2.4v10.3c.1.4.2.5.5.5.5 0 .9-.4 1.4-1.1v-9.7h2.4v12.7zm8.8-3.8c0 1.2-.1 2-.3 2.5-.3.9-1 1.4-1.9 1.4-.8 0-1.7-.5-2.4-1.4v1.3h-2.3v-17h2.3v5.6c.7-.9 1.6-1.4 2.4-1.4.9 0 1.5.5 1.8 1.5.2.5.3 1.3.3 2.5v5zm8.5-2.2h-4.6v2.3c0 1.2.3 1.8 1.1 1.8.6 0 .9-.3 1-.9v-1.6h2.4v.4c0 .8-.1 1.3-.1 1.5-.1.5-.3 1-.5 1.4-.6.9-1.6 1.4-2.8 1.4s-2.1-.4-2.8-1.3c-.5-.6-.8-1.6-.8-2.9v-4.5c0-1.4.3-2.4.8-3.1.7-.9 1.6-1.3 2.8-1.3 1.2 0 2.1.5 2.7 1.3.5.6.8 1.6.8 3v2.5z"/></svg>