<svg xmlns="http://www.w3.org/2000/svg" viewBox="0 0 64 64"><path d="M32 63.8c-.2 0-.3 0-.5-.1-11.8-.2-22.4-6.8-27.9-16.9v6.8c0 .7-.6 1.3-1.3 1.3S1 54.3 1 53.6V40.5c0-.4.2-.9.6-1.1.4-.2.9-.2 1.3 0l11.3 6.7c.6.4.8 1.1.4 1.7-.4.6-1.1.8-1.7.4l-8.3-4.9c4.5 10.4 14.6 17.3 26 17.8V30.8h-8.5c-.7 0-1.3-.6-1.3-1.3s.6-1.3 1.3-1.3h8.5v-6.4C25.2 21.2 21 16.6 21 11 21 5 25.9.1 31.9.1S42.7 5 42.7 11c0 5.6-4.2 10.2-9.6 10.8v6.4h8.3c.7 0 1.3.6 1.3 1.3s-.6 1.3-1.3 1.3h-8.3v30.4c11.4-.5 21.4-7.4 26-17.8l-8.3 4.9c-.6.4-1.4.2-1.7-.4s-.2-1.4.4-1.7L61 39.4c.4-.2.9-.2 1.3 0s.6.6.6 1.1v13.1c0 .7-.6 1.3-1.3 1.3s-1.3-.6-1.3-1.3v-6.8c-5.5 10.1-16.1 16.7-27.9 16.9-.1 0-.2.1-.4.1zm0-61c-4.6 0-8.4 3.7-8.4 8.4s3.7 8.4 8.4 8.4c4.6 0 8.3-3.7 8.3-8.4S36.6 2.8 32 2.8z"/></svg>