<svg xmlns="http://www.w3.org/2000/svg" viewBox="0 0 64 64"><path d="M62.6 61.2H1.4c-.7 0-1.3-.6-1.3-1.3s.6-1.3 1.3-1.3h61.1c.7 0 1.3.6 1.3 1.3s-.5 1.3-1.2 1.3zm-49.7-7.3H4.8c-.7 0-1.3-.6-1.3-1.3V29.9c0-.7.6-1.3 1.3-1.3H13c.7 0 1.3.6 1.3 1.3v22.8c-.1.7-.7 1.2-1.4 1.2zM6 51.4h5.7V31.2H6v20.2zm22.4 2.5h-8.2c-.7 0-1.3-.6-1.3-1.3v-36c0-.7.6-1.3 1.3-1.3h8.2c.7 0 1.3.6 1.3 1.3v36c-.1.8-.6 1.3-1.3 1.3zm-7-2.5h5.7V18h-5.7v33.4zm22.4 2.5h-8.2c-.7 0-1.3-.6-1.3-1.3V23.9c0-.7.6-1.3 1.3-1.3h8.2c.7 0 1.3.6 1.3 1.3v28.8c0 .7-.6 1.2-1.3 1.2zm-6.9-2.5h5.7V25.1h-5.7v26.3zm22.3 2.5H51c-.7 0-1.3-.6-1.3-1.3V4c0-.7.6-1.3 1.3-1.3h8.2c.7 0 1.3.6 1.3 1.3v48.7c0 .7-.6 1.2-1.3 1.2zm-6.9-2.5H58V5.3h-5.7v46.1z"/></svg>