<svg xmlns="http://www.w3.org/2000/svg" viewBox="0 0 64 64"><path d="M29.5 57.6c-7.2 0-13.6-4.5-16-11.3-.1-.4-.1-.8.2-1.1.2-.3.6-.5 1-.5l10.1.5h.1c4.5.4 8.7-2.8 9.5-7.2.9-4.8-2.2-9.5-7.1-10.4-2.5-.6-5.3.1-7.3 1.8-.1.1-.2.2-.3.2-.1.1-.1.2-.2.3l-.3.3-.1.1c-.3.3-.7.5-1.2.4-.4-.1-.8-.4-.9-.9-.1-.4 0-.8.3-1.1l.2-.2.1-.1.3-.3c.1-.1.3-.2.4-.2.1-.1.2-.3.3-.4 3.1-2.6 7-4.1 11-4.1 9.4 0 17 7.6 17 17-.1 9.5-7.7 17.2-17.1 17.2zM16.4 47.1c2.5 4.9 7.5 8.1 13.1 8.1 8.1 0 14.6-6.6 14.6-14.6 0-7.8-6.2-14.2-13.9-14.6 4.7 2.1 7.6 7.2 6.5 12.5-1.1 5.6-6.2 9.6-12 9.1l-8.3-.5z"/><path d="M39 27.6c-7.4 0-13.5-6-13.5-13.5C25.5 6.7 31.5.6 39 .6s13.5 6 13.5 13.5c0 7.4-6 13.5-13.5 13.5zM39 3c-6.1 0-11.1 5-11.1 11.1s5 11.1 11.1 11.1 11.1-5 11.1-11.1S45.1 3 39 3z"/><path d="M51 18c-.2 0-.3 0-.5-.1-.5-.2-.8-.8-.7-1.3.2-.8.3-1.6.3-2.5 0-4-2.2-7.7-5.7-9.7-.4-.3-.7-.8-.5-1.4.2-.5.7-.9 1.3-.8l14.7 1.7c.4 0 .8.3 1 .7.1.4 0 .8-.2 1.2L52 17.5c-.3.3-.6.5-1 .5zM49 5c2 2.2 3.2 4.9 3.5 7.9l5-6.9L49 5zM29.5 57.6c-7.2 0-13.6-4.5-16-11.3-.1-.4-.1-.8.2-1.1.2-.3.6-.5 1-.5l10.1.5h.1c4.5.4 8.7-2.8 9.5-7.2.9-4.8-2.2-9.5-7.1-10.4-2.5-.6-5.3.1-7.3 1.8-.1.1-.2.2-.3.2-.1.1-.1.2-.2.3l-.3.3-.1.1c-.3.3-.7.5-1.2.4-.4-.1-.8-.4-.9-.9-.1-.4 0-.8.3-1.1l.2-.2.1-.1.3-.3c.1-.1.3-.2.4-.2.1-.1.2-.3.3-.4 3.1-2.6 7-4.1 11-4.1 9.4 0 17 7.6 17 17-.1 9.5-7.7 17.2-17.1 17.2zM16.4 47.1c2.5 4.9 7.5 8.1 13.1 8.1 8.1 0 14.6-6.6 14.6-14.6 0-7.8-6.2-14.2-13.9-14.6 4.7 2.1 7.6 7.2 6.5 12.5-1.1 5.6-6.2 9.6-12 9.1l-8.3-.5z"/><path d="M25.7 47.6h-.9l-19.5-1c-.8-.1-1.4-.5-1.8-1.1-.4-.6-.5-1.2-.4-1.9.2-.6.5-1.1.9-1.5l13.1-13.3c2.6-3 6.7-4.4 10.6-3.6 6.1 1.2 10.1 7.1 9 13.2-1 5.3-5.6 9.2-11 9.2zm-.9-2.5h.1c4.6.4 8.7-2.8 9.5-7.2.9-4.8-2.2-9.5-7.1-10.4-3.1-.6-6.4.5-8.4 2.9l-.1.1-13 13.2-.2.2v.2l19.2 1zm9.7 18.3c-.3 0-.6-.1-.8-.3-2.2-2.2-6.1-2.2-8.3 0-.5.5-1.2.5-1.7 0s-.5-1.2 0-1.7c1.6-1.6 3.6-2.4 5.8-2.4 2.2 0 4.3.9 5.8 2.4.5.5.5 1.2 0 1.7-.2.2-.5.3-.8.3z"/></svg>