<svg xmlns="http://www.w3.org/2000/svg" viewBox="0 0 64 64"><path d="M62.1 60H1.9c-.7 0-1.3-.6-1.3-1.3V9.3c0-.7.6-1.3 1.3-1.3h60.3c.7 0 1.3.6 1.3 1.3v49.5c-.1.7-.7 1.2-1.4 1.2zm-59-2.5h57.8v-47H3.1v47z"/><path d="M13.6 14.9c-.7 0-1.3-.6-1.3-1.3V5.2c.1-.7.7-1.2 1.3-1.2s1.3.6 1.3 1.3v8.4c0 .6-.6 1.2-1.3 1.2zm12.3 0c-.7 0-1.3-.6-1.3-1.3V5.2c0-.7.6-1.3 1.3-1.3s1.3.6 1.3 1.3v8.4c-.1.7-.6 1.3-1.3 1.3zm12.2 0c-.7 0-1.3-.6-1.3-1.3V5.2c0-.7.6-1.3 1.3-1.3s1.3.6 1.3 1.3v8.4c0 .7-.6 1.3-1.3 1.3zm12.3 0c-.7 0-1.3-.6-1.3-1.3V5.2c0-.7.6-1.3 1.3-1.3s1.3.6 1.3 1.3v8.4c-.1.7-.7 1.3-1.3 1.3zM12.7 28.3c-.7 0-1.3-.6-1.3-1.3v-2.1c0-.7.6-1.3 1.3-1.3s1.3.6 1.3 1.3V27c-.1.7-.6 1.3-1.3 1.3zm9.7 0c-.7 0-1.3-.6-1.3-1.3v-2.1c0-.7.6-1.3 1.3-1.3s1.3.6 1.3 1.3V27c-.1.7-.7 1.3-1.3 1.3zm9.6 0c-.7 0-1.3-.6-1.3-1.3v-2.1c0-.7.6-1.3 1.3-1.3s1.3.6 1.3 1.3V27c0 .7-.6 1.3-1.3 1.3zm9.7 0c-.7 0-1.3-.6-1.3-1.3v-2.1c0-.7.6-1.3 1.3-1.3s1.3.6 1.3 1.3V27c0 .7-.6 1.3-1.3 1.3zm-29 21.4c-.7 0-1.3-.6-1.3-1.3v-2.2c0-.7.6-1.3 1.3-1.3s1.3.6 1.3 1.3v2.2c-.1.8-.6 1.3-1.3 1.3zm9.7 0c-.7 0-1.3-.6-1.3-1.3v-2.2c0-.7.6-1.3 1.3-1.3s1.3.6 1.3 1.3v2.2c-.1.8-.7 1.3-1.3 1.3zm9.6 0c-.7 0-1.3-.6-1.3-1.3v-2.2c0-.7.6-1.3 1.3-1.3s1.3.6 1.3 1.3v2.2c0 .8-.6 1.3-1.3 1.3zm19.3-21.4c-.7 0-1.3-.6-1.3-1.3v-2.1c0-.7.6-1.3 1.3-1.3s1.3.6 1.3 1.3V27c0 .7-.6 1.3-1.3 1.3zM12.7 39c-.7 0-1.3-.6-1.3-1.3v-2.2c0-.7.6-1.3 1.3-1.3s1.3.6 1.3 1.3v2.2c-.1.8-.6 1.3-1.3 1.3zm31 2.8h-4.2c-1.7 0-3-1.3-3-3v-4.2c0-1.7 1.3-3 3-3h4.2c1.7 0 3 1.3 3 3v4.2c0 1.7-1.4 3-3 3zm-4.2-7.7c-.3 0-.5.2-.5.5v4.2c0 .3.2.5.5.5h4.2c.3 0 .5-.2.5-.5v-4.2c0-.3-.2-.5-.5-.5h-4.2zM51.3 39c-.7 0-1.3-.6-1.3-1.3v-2.2c0-.7.6-1.3 1.3-1.3s1.3.6 1.3 1.3v2.2c0 .8-.6 1.3-1.3 1.3zM32 39c-.7 0-1.3-.6-1.3-1.3v-2.2c0-.7.6-1.3 1.3-1.3s1.3.6 1.3 1.3v2.2c-.1.8-.6 1.3-1.3 1.3zm-9.7 0c-.7 0-1.3-.6-1.3-1.3v-2.2c0-.7.6-1.3 1.3-1.3s1.3.6 1.3 1.3v2.2c-.1.8-.6 1.3-1.3 1.3z"/></svg>