<svg xmlns="http://www.w3.org/2000/svg" viewBox="0 0 64 64"><path d="M62.5 59.4h-61c-.7 0-1.3-.6-1.3-1.3V17.6c0-.7.6-1.3 1.3-1.3h11.4l4.5-10.9c.2-.5.6-.8 1.2-.8h27c.5 0 1 .3 1.2.8l4.5 10.9h11.4c.7 0 1.3.6 1.3 1.3v40.5c-.2.7-.8 1.3-1.5 1.3zM2.7 56.9h58.6v-38h-11c-.5 0-1-.3-1.2-.8l-4.4-11H19.3L14.8 18c-.2.5-.6.8-1.2.8h-11v38.1z"/><path d="M32 51.5c-9.7 0-17.6-7.9-17.6-17.6 0-9.7 7.9-17.6 17.6-17.6s17.6 7.9 17.6 17.6c0 9.7-7.9 17.6-17.6 17.6zm0-32.7c-8.3 0-15.1 6.8-15.1 15.1C16.9 42.3 23.7 49 32 49s15.1-6.8 15.1-15.1S40.3 18.8 32 18.8zm0 26c-6 0-10.9-4.9-10.9-10.9S26 23 32 23s10.9 4.9 10.9 10.9S38 44.8 32 44.8zm0-19.2c-4.6 0-8.4 3.7-8.4 8.4s3.7 8.4 8.4 8.4 8.4-3.8 8.4-8.4-3.8-8.4-8.4-8.4z"/></svg>