<svg xmlns="http://www.w3.org/2000/svg" viewBox="0 0 64 64"><path d="M32 61.4c-.7 0-1.3-.6-1.3-1.3V24L21 33.8c-.5.5-1.3.5-1.8 0s-.5-1.3 0-1.8l11.9-12c.5-.5 1.3-.5 1.8 0l11.9 12c.5.5.5 1.3 0 1.8s-1.3.5-1.8 0L33.3 24v36.1c0 .7-.6 1.3-1.3 1.3zm16.7-18.5h-6.9c-.7 0-1.3-.6-1.3-1.3s.6-1.3 1.3-1.3h6.9C55.5 40.3 61 34.8 61 28c0-6.8-5.5-12.3-12.3-12.3-.8 0-1.7.1-2.5.3-.6.1-1.2-.2-1.4-.8-2.4-6.1-8.3-10.1-14.9-10.1-8.8 0-16 7.2-16 16v.2c0 .3-.1.7-.4.9s-.6.4-.9.3H12c-4.9 0-8.9 4-8.9 8.9s4 8.9 8.9 8.9h9.3c.7 0 1.3.6 1.3 1.3s-.6 1.3-1.3 1.3H12C5.7 42.9.6 37.8.6 31.5c0-6.1 4.8-11.1 10.8-11.4.5-9.7 8.6-17.5 18.5-17.5 7.4 0 13.9 4.2 16.9 10.9.7-.1 1.3-.1 2-.1 8.1 0 14.8 6.6 14.8 14.8-.1 8.1-6.7 14.7-14.9 14.7z"/></svg>