<svg xmlns="http://www.w3.org/2000/svg" viewBox="0 0 64 64"><path d="M32 63.4c-.3 0-.7-.1-.9-.4l-12-12.1c-.5-.5-.5-1.3 0-1.8s1.3-.5 1.8 0l9.8 9.9V27c0-.7.6-1.3 1.3-1.3s1.3.6 1.3 1.3v32.1l9.8-9.9c.5-.5 1.3-.5 1.8 0s.5 1.3 0 1.8l-12 12c-.2.3-.6.4-.9.4zm16.8-22.3h-6.9c-.7 0-1.3-.6-1.3-1.3s.6-1.3 1.3-1.3h6.9c6.8 0 12.4-5.5 12.4-12.4s-5.5-12.4-12.4-12.4c-.8 0-1.7.1-2.5.3-.6.1-1.2-.2-1.4-.8-2.4-6.1-8.4-10.1-15.1-10.1-8.9 0-16.2 7.2-16.2 16.2v.2c0 .3-.1.7-.4.9s-.6.4-.9.3h-.6c-4.9 0-9 4-9 9s4 9 9 9H21c.7 0 1.3.6 1.3 1.3s-.6 1.3-1.3 1.3h-9.3C5.5 41.1.3 36 .3 29.7c0-6.1 4.8-11.1 10.9-11.4C11.7 8.5 19.9.7 29.8.7c7.4 0 14 4.3 17 10.9.7-.1 1.3-.1 2-.1 8.2 0 14.9 6.7 14.9 14.9 0 8.1-6.7 14.7-14.9 14.7z"/></svg>