<svg xmlns="http://www.w3.org/2000/svg" viewBox="0 0 64 64"><path d="M11.5 63.5c-.2 0-.4 0-.5-.1-.4-.2-.7-.6-.7-1.1v-12H1.8c-.7 0-1.3-.6-1.3-1.3V11.4c0-.7.6-1.3 1.3-1.3h50.8c.7 0 1.3.6 1.3 1.3V49c0 .7-.6 1.3-1.3 1.3H27.8L12.3 63.2c-.2.2-.5.3-.8.3zM3 47.8h8.5c.7 0 1.3.6 1.3 1.3v10.6l13.8-11.5c.2-.2.5-.3.8-.3h24V12.7H3v35.1z"/><path d="M62.2 40.6h-8.8c-.7 0-1.3-.6-1.3-1.3s.6-1.3 1.3-1.3H61V3H12.6v8.4c0 .7-.6 1.3-1.3 1.3s-1.3-.6-1.3-1.3V1.8c0-.7.6-1.3 1.3-1.3h50.8c.7 0 1.3.6 1.3 1.3v37.6c.1.6-.5 1.2-1.2 1.2z"/></svg>