<svg xmlns="http://www.w3.org/2000/svg" viewBox="0 0 64 64"><path d="M52.1 59c-.7 0-1.3-.6-1.3-1.3 0-5-2-9.8-5.5-13.3-3.6-3.6-8.3-5.5-13.3-5.5-2.1 0-4.2.3-6.2 1-.7.2-1.4-.1-1.6-.8-.2-.7.1-1.4.8-1.6 2.3-.8 4.6-1.2 7-1.2 5.7 0 11.1 2.2 15.1 6.3 4 4 6.3 9.4 6.3 15.1 0 .8-.6 1.3-1.3 1.3zm-40.2 0c-.7 0-1.3-.6-1.3-1.3 0-4.3 1.3-8.5 3.7-12 .4-.6 1.2-.7 1.7-.3.6.4.7 1.2.3 1.7-2.1 3.1-3.3 6.8-3.3 10.6.1.8-.4 1.3-1.1 1.3zm17-3.4c-.4 0-.8-.2-1-.5L15.8 39.2c-.4-.5-.3-1.3.2-1.7.5-.4 1.2-.4 1.7 0l14.5 13.8c.5.5.5 1.3 0 1.8s-1.3.5-1.8 0l-3.3-3.2 2.8 3.7c.4.6.3 1.3-.2 1.8-.3.1-.6.2-.8.2z"/><path d="M32 60c-2.5 0-4.6-2-4.6-4.6s2-4.6 4.6-4.6c2.5 0 4.6 2 4.6 4.6S34.5 60 32 60zm0-6.6c-1.1 0-2.1.9-2.1 2.1s.9 2.1 2.1 2.1 2.1-.9 2.1-2.1-1-2.1-2.1-2.1z"/><path d="M62.3 60H1.7C1 60 .4 59.4.4 58.7V5.3C.4 4.6 1 4 1.7 4h60.6c.7 0 1.3.6 1.3 1.3v53.4c0 .7-.6 1.3-1.3 1.3zM2.9 57.5H61v-51H2.9v51z"/><path d="M62.3 19.2H1.7c-.7 0-1.3-.6-1.3-1.3s.6-1.3 1.3-1.3h60.6c.7 0 1.3.6 1.3 1.3s-.6 1.3-1.3 1.3zm-7.6-4.7c-1.4 0-2.6-1.2-2.6-2.6s1.2-2.6 2.6-2.6c1.4 0 2.6 1.2 2.6 2.6s-1.2 2.6-2.6 2.6zm0-2.7c-.1 0-.1 0-.1.1s.2.1.2 0-.1-.1-.1-.1zM46 14.5c-1.4 0-2.6-1.2-2.6-2.6s1.2-2.6 2.6-2.6c1.4 0 2.6 1.2 2.6 2.6s-1.1 2.6-2.6 2.6zm0-2.7c-.1 0-.1 0-.1.1s.2.1.2 0 0-.1-.1-.1z"/></svg>