<svg xmlns="http://www.w3.org/2000/svg" viewBox="0 0 64 64"><path d="M62.4 49.5H1.6c-.7 0-1.3-.6-1.3-1.3V5c0-.7.6-1.3 1.3-1.3h60.8c.7 0 1.3.6 1.3 1.3v43.3c0 .7-.6 1.2-1.3 1.2zM2.8 47h58.3V6.3H2.8V47z"/><path d="M12.3 37.8c-2.9 0-5.3-2.4-5.3-5.3s2.4-5.3 5.3-5.3 5.3 2.4 5.3 5.3-2.4 5.3-5.3 5.3zm0-8c-1.5 0-2.8 1.2-2.8 2.8s1.2 2.8 2.8 2.8 2.8-1.2 2.8-2.8-1.2-2.8-2.8-2.8zm26.3 6.6c-2.9 0-5.3-2.4-5.3-5.3s2.4-5.3 5.3-5.3 5.3 2.4 5.3 5.3c-.1 2.9-2.4 5.3-5.3 5.3zm0-8c-1.5 0-2.8 1.2-2.8 2.8S37 34 38.6 34s2.8-1.2 2.8-2.8-1.3-2.8-2.8-2.8zm13.1 1.9c-2.9 0-5.3-2.4-5.3-5.3s2.4-5.3 5.3-5.3S57 22.1 57 25s-2.4 5.3-5.3 5.3zm0-8c-1.5 0-2.8 1.2-2.8 2.8s1.2 2.8 2.8 2.8 2.8-1.2 2.8-2.8-1.3-2.8-2.8-2.8zm-26.3 2.2c-2.9 0-5.3-2.4-5.3-5.3s2.4-5.3 5.3-5.3 5.3 2.4 5.3 5.3-2.4 5.3-5.3 5.3zm0-8c-1.5 0-2.8 1.2-2.8 2.8 0 1.5 1.2 2.8 2.8 2.8 1.5 0 2.8-1.2 2.8-2.8 0-1.6-1.2-2.8-2.8-2.8z"/><path d="M15.9 30.1c-.3 0-.6-.1-.9-.4-.5-.5-.5-1.3 0-1.8l6.2-6.1c.5-.5 1.3-.5 1.8 0s.5 1.3 0 1.8l-6.2 6.1c-.3.3-.6.4-.9.4zm19.4-.6c-.3 0-.6-.1-.8-.3l-6.2-5.7c-.5-.5-.5-1.3-.1-1.8.5-.5 1.3-.5 1.8-.1l6.2 5.7c.5.5.5 1.3.1 1.8-.3.2-.7.4-1 .4zm7.2 1.2c-.5 0-.9-.3-1.1-.7-.3-.6 0-1.4.6-1.7l4.7-2.3c.6-.3 1.4 0 1.7.6.3.6 0 1.4-.6 1.7L43 30.5c-.1.1-.3.2-.5.2zm4 29.5h-29c-.7 0-1.3-.6-1.3-1.3s.6-1.3 1.3-1.3h29.1c.7 0 1.3.6 1.3 1.3s-.7 1.3-1.4 1.3z"/><path d="M24.7 58.8c-.7 0-1.3-.6-1.3-1.3v-8.6c0-.7.6-1.3 1.3-1.3s1.3.6 1.3 1.3v8.6c-.1.7-.6 1.3-1.3 1.3zm14.6 0c-.7 0-1.3-.6-1.3-1.3v-8.6c0-.7.6-1.3 1.3-1.3s1.3.6 1.3 1.3v8.6c0 .7-.6 1.3-1.3 1.3z"/></svg>