<svg xmlns="http://www.w3.org/2000/svg" viewBox="0 0 64 64"><path d="M47.3 60H16.7c-.2 0-.3 0-.4-.1l-4.9-.5c-.5 0-1-.4-1.1-1-.3-1.4-.5-2.9-.5-4.4 0-1.5.2-2.9.5-4.4.1-.5.6-.9 1.1-1l4.4-.4c.2-.6.4-1.1.7-1.7l-2.8-3.4c-.3-.4-.4-1-.1-1.5.8-1.2 1.7-2.4 2.7-3.4 1-1 2.2-2 3.4-2.7.5-.3 1-.2 1.5.1l3.4 2.8c.5-.3 1.1-.5 1.7-.7l.4-4.4c.1-.5.4-1 1-1.1 2.9-.7 5.9-.7 8.7 0 .5.1.9.6 1 1.1l.4 4.4c.6.2 1.1.4 1.7.7l3.4-2.8c.4-.3 1-.4 1.5-.1 1.2.8 2.4 1.7 3.4 2.7 1 1 2 2.2 2.7 3.4.3.5.2 1-.1 1.5l-2.8 3.4c.3.5.5 1.1.7 1.7l4.4.4c.5 0 1 .4 1.1 1 .3 1.4.5 2.9.5 4.4 0 1.5-.2 2.9-.5 4.4-.1.5-.6.9-1.1 1l-4.9.5c-.3.1-.4.1-.5.1zm-6.2-2.5h6.1l4.3-.4c.2-1 .3-1.9.3-2.9s-.1-2-.3-2.9l-4.3-.4c-.5 0-.9-.4-1.1-.9-.3-1-.7-1.9-1.1-2.8-.2-.4-.2-1 .1-1.4l2.7-3.3c-.6-.8-1.2-1.6-1.9-2.2-.7-.7-1.4-1.3-2.2-1.9l-3.3 2.7c-.4.3-.9.4-1.4.1-.9-.5-1.8-.9-2.8-1.1-.5-.1-.8-.6-.9-1.1l-.4-4.3c-1.9-.3-3.9-.3-5.8 0l-.4 4.3c0 .5-.4.9-.9 1.1-1 .3-1.9.7-2.8 1.1-.4.2-1 .2-1.4-.1l-3.3-2.7c-.8.6-1.6 1.2-2.2 1.9-.7.7-1.3 1.4-1.9 2.2l2.7 3.3c.3.4.4.9.1 1.4-.5.9-.9 1.8-1.1 2.8-.1.5-.6.8-1.1.9l-4.3.4c-.2 1-.3 1.9-.3 2.9s.1 2 .3 2.9l4.3.4h6.1c-.4-1.1-.6-2.2-.6-3.4 0-5.3 4.3-9.7 9.7-9.7s9.7 4.3 9.7 9.7c0 1.2-.2 2.3-.6 3.4zm-15.4 0h12.7c.5-1 .8-2.2.8-3.4 0-4-3.2-7.2-7.2-7.2s-7.2 3.2-7.2 7.2c0 1.2.3 2.4.9 3.4zm1.7-18.7z"/><path d="M62.3 60H1.7C1 60 .4 59.4.4 58.7V5.3C.4 4.6 1 4 1.7 4h60.7c.7 0 1.3.6 1.3 1.3v53.5c-.1.6-.7 1.2-1.4 1.2zM2.9 57.5h58.2v-51H2.9v51z"/><path d="M62.3 19.2H1.7c-.7 0-1.3-.6-1.3-1.3s.6-1.3 1.3-1.3h60.7c.7 0 1.3.6 1.3 1.3s-.7 1.3-1.4 1.3zm-7.6-4.8c-1.4 0-2.6-1.2-2.6-2.6 0-1.4 1.2-2.6 2.6-2.6s2.6 1.2 2.6 2.6c0 1.5-1.2 2.6-2.6 2.6zm0-2.7c-.1 0-.1 0-.1.1s.2.1.2 0c0 0 0-.1-.1-.1zM46 14.4c-1.4 0-2.6-1.2-2.6-2.6 0-1.4 1.2-2.6 2.6-2.6s2.6 1.2 2.6 2.6c0 1.5-1.1 2.6-2.6 2.6zm0-2.7c-.1 0-.1 0-.1.1s.2.1.2 0c0 0 0-.1-.1-.1z"/></svg>