<svg xmlns="http://www.w3.org/2000/svg" viewBox="0 0 64 64"><path d="M23.1 56.1c-.3 0-.6-.1-.8-.3l-9.7-7.9c-.3-.2-.5-.6-.5-1s.2-.7.5-1l9.7-7.9c.5-.4 1.3-.4 1.8.2.4.5.4 1.3-.2 1.8l-8.5 7 8.5 7c.5.4.6 1.2.2 1.8-.3.1-.7.3-1 .3zm17.8 0c-.4 0-.7-.2-1-.5-.4-.5-.4-1.3.2-1.8l8.5-7-8.5-7c-.5-.4-.6-1.2-.2-1.8.4-.5 1.2-.6 1.8-.2l9.7 7.9c.3.2.5.6.5 1s-.2.7-.5 1l-9.7 7.9c-.2.4-.5.5-.8.5zM30 59.9h-.3c-.7-.1-1.1-.8-1-1.5l5-23.6c.1-.7.8-1.1 1.5-1 .7.1 1.1.8 1 1.5l-5 23.6c-.1.6-.6 1-1.2 1z"/><path d="M62.3 59.9H1.7c-.7 0-1.3-.6-1.3-1.3V5.3C.4 4.6 1 4 1.7 4h60.5c.7 0 1.3.6 1.3 1.3v53.4c0 .7-.5 1.2-1.2 1.2zM3 57.4h58V6.6H3v50.8z"/><path d="M62.3 19.2H1.7c-.7 0-1.3-.6-1.3-1.3s.6-1.3 1.3-1.3h60.5c.7 0 1.3.6 1.3 1.3s-.5 1.3-1.2 1.3zm-7.7-4.7c-1.4 0-2.6-1.2-2.6-2.6s1.2-2.6 2.6-2.6c1.4 0 2.6 1.2 2.6 2.6s-1.1 2.6-2.6 2.6zm0-2.7c-.1 0-.1 0-.1.1s.2.1.2 0 0-.1-.1-.1zM46 14.5c-1.4 0-2.6-1.2-2.6-2.6s1.2-2.6 2.6-2.6 2.6 1.2 2.6 2.6-1.2 2.6-2.6 2.6zm0-2.7c-.1 0-.1 0-.1.1s.2.1.2 0 0-.1-.1-.1z"/></svg>