<svg xmlns="http://www.w3.org/2000/svg" viewBox="0 0 64 64"><path d="M61.8 59.5H2.2c-.7 0-1.3-.6-1.3-1.3V5.7c0-.7.6-1.3 1.3-1.3h59.6c.7 0 1.3.6 1.3 1.3v52.5c-.1.7-.6 1.3-1.3 1.3zM3.5 57h57.1V7H3.5v50z"/><path d="M61.8 19.4H2.2c-.7 0-1.3-.6-1.3-1.3s.6-1.3 1.3-1.3h59.6c.7 0 1.3.6 1.3 1.3s-.6 1.3-1.3 1.3zm-7.5-4.6c-1.4 0-2.6-1.2-2.6-2.6 0-1.4 1.2-2.6 2.6-2.6 1.4 0 2.6 1.2 2.6 2.6 0 1.4-1.2 2.6-2.6 2.6zm0-2.7c-.1 0-.1.1 0 0-.1.2.1.2 0 0 .1.1 0 0 0 0zm-8.5 2.7c-1.4 0-2.6-1.2-2.6-2.6 0-1.4 1.2-2.6 2.6-2.6s2.6 1.2 2.6 2.6c0 1.4-1.2 2.6-2.6 2.6zm0-2.7c-.1 0-.1.1 0 0-.1.2.1.2 0 0 .1.1 0 0 0 0zM19.5 43.9c-4.8 0-9.1-4.7-11.3-8.8-1.6-2.9-1.2-3.6-.9-4l2.4-3.6c1.1-1.7 3.4-.3 5.9 1.2.9.5 2.1 1.4 2.6 1.4h26.9c3.9 0 6.8 2.9 9.2 5.7 1.3 1.6 1.7 3.4 1 4.9-.4.9-1.7 2.5-5.3 2.6l-15.1.2c-.7 0-1.3-.5-1.3-1.2s.5-1.3 1.2-1.3h15c1.6 0 2.7-.4 3-1.1.3-.6 0-1.5-.6-2.3-2-2.4-4.4-4.9-7.3-4.9H18c-.9 0-2-.7-3.8-1.8-.8-.5-2-1.3-2.7-1.6l-1.8 2.8c.6 1.8 5 9.4 10 9.2l3.4-.1c.7 0 1.3.5 1.3 1.2s-.5 1.3-1.2 1.3l-3.4.1c-.2.1-.3.1-.3.1zM9.5 32z"/><path d="M21.9 52.8c-.8 0-1.5-.2-2-.7-2.7-2.5 1.2-8.3 5.9-14.3.2-.3.4-.5.5-.7.2-.3.6-.5 1-.5h12c.5 0 1 .3 1.2.8s.1 1-.3 1.4l-10 9.7c-1.8 1.6-5.6 4.3-8.3 4.3zm6-13.7c-.1.1-.1.2-.2.2-7.5 9.6-6.2 10.9-6.2 10.9.6.5 4.2-1 6.9-3.6l7.8-7.5h-8.3z"/></svg>