<svg xmlns="http://www.w3.org/2000/svg" viewBox="0 0 64 64"><path d="M37 45.5H7c-.7 0-1.3-.6-1.3-1.3v-19c.1-.7.6-1.2 1.3-1.2h30c.7 0 1.3.6 1.3 1.3v19.1c0 .6-.6 1.1-1.3 1.1zM8.3 43h27.5V26.5H8.3V43z"/><path d="M61.3 31H38c-.7 0-1.3-.6-1.3-1.3s.6-1.3 1.3-1.3h22V3.3H19.3V24c0 .7-.6 1.3-1.3 1.3s-1.3-.6-1.3-1.3V2c0-.7.6-1.3 1.3-1.3h43.3c.7 0 1.3.6 1.3 1.3v27.7c-.1.7-.6 1.3-1.3 1.3z"/><path d="M40.2 37.5c-.7 0-1.3-.6-1.3-1.3V30c0-.7.6-1.3 1.3-1.3s1.3.6 1.3 1.3v6.2c0 .8-.6 1.3-1.3 1.3z"/><path d="M50.4 38.5H37.8c-.7 0-1.3-.6-1.3-1.3s.6-1.3 1.3-1.3h12.6c.7 0 1.3.6 1.3 1.3s-.6 1.3-1.3 1.3zm10 24.7h-9.8c-1.4 0-2.5-1.2-2.5-2.6V43.7c-.1-.7.1-1.4.6-1.9s1.2-.9 2-.9h9.8c1.4 0 2.5 1.2 2.5 2.5v17.1c0 1.5-1.2 2.7-2.6 2.7zm-9.8-19.7c-.1 0-.1 0 0 0-.1.1 0 .1 0 .1v17l9.9.1V43.5h-9.9z"/><path d="M43 37.5c-.7 0-1.3-.6-1.3-1.3v-6.1c0-.7.6-1.3 1.3-1.3s1.3.6 1.3 1.3v6.1c0 .8-.6 1.3-1.3 1.3zm-1.3 14H2.3c-.7 0-1.3-.6-1.3-1.3S1.6 49 2.3 49h39.4c.7 0 1.3.6 1.3 1.3s-.6 1.2-1.3 1.2z"/></svg>