<svg xmlns="http://www.w3.org/2000/svg" viewBox="0 0 64 64"><path d="M28 59.3c-3.4 0-6.1-2.8-6.1-6.1 0-3.4 2.8-6.2 6.1-6.2s6.2 2.8 6.2 6.2c0 3.4-2.8 6.1-6.2 6.1zm0-9.8c-2 0-3.6 1.6-3.6 3.7s1.6 3.6 3.6 3.6 3.7-1.6 3.7-3.6-1.7-3.7-3.7-3.7zm20.5 9.8c-3.4 0-6.2-2.8-6.2-6.1 0-3.4 2.8-6.2 6.2-6.2s6.2 2.8 6.2 6.2c0 3.4-2.8 6.1-6.2 6.1zm0-9.8c-2 0-3.7 1.6-3.7 3.7s1.6 3.6 3.7 3.6 3.7-1.6 3.7-3.6-1.7-3.7-3.7-3.7zm7.8-9.7H23.9c-.6 0-1.1-.4-1.2-1L16.6 7.1H2C1.3 7.1.7 6.5.7 5.8S1.3 4.6 2 4.6h15.6c.6 0 1.1.4 1.2 1l6.1 31.6h31.4c.7 0 1.3.6 1.3 1.3s-.6 1.3-1.3 1.3z"/><path d="M59.8 31.3H22.9c-.7 0-1.3-.6-1.3-1.3s.6-1.3 1.3-1.3h36.9c.7 0 1.3.6 1.3 1.3s-.6 1.3-1.3 1.3zm2.2-8.7H21.7c-.7 0-1.3-.6-1.3-1.3S21 20 21.7 20H62c.7 0 1.3.6 1.3 1.3s-.6 1.3-1.3 1.3z"/></svg>