<svg xmlns="http://www.w3.org/2000/svg" viewBox="0 0 64 64"><path d="M54.2 54.7c-5 0-9.1-4.1-9.1-9.1L43.8 37H20.2l-1.3 8.6c0 5-4.1 9.1-9.1 9.1S.7 50.6.7 45.6c0-.9.1-1.7.4-2.6l3.7-24.7c0-5 4.1-9.1 9.1-9.1 3.4 0 6.5 1.9 8 4.8h20.3c1.6-3 4.7-4.8 8-4.8 5 0 9.1 4.1 9.1 9.1L63 43c.2.8.4 1.7.4 2.6 0 5-4.1 9.1-9.2 9.1zm-9.7-19.4c.4 0 .9.3 1 .7l1.4 9.4v.1c0 4.1 3.3 7.4 7.4 7.4 4.1 0 7.4-3.3 7.4-7.4 0-.7-.1-1.4-.3-2.1v-.1l-3.7-24.8v-.1c0-4.1-3.3-7.4-7.4-7.4-2.9 0-5.5 1.7-6.7 4.3-.1.3-.4.5-.8.5H21.3c-.3 0-.6-.2-.8-.5-1.2-2.6-3.9-4.3-6.7-4.3-4.1 0-7.4 3.3-7.4 7.4v.1L2.7 43.3v.1c-.2.7-.3 1.4-.3 2.1 0 4.1 3.3 7.4 7.4 7.4 4.1 0 7.4-3.3 7.4-7.4v-.1l1.4-9.4c.1-.5.5-.8.9-.7.3 0 .5.1.8.1h24c.1-.1.1-.1.2-.1z"/><path d="M19.8 24.1h-8.1c-.5 0-.9-.4-.9-.9s.4-.9.9-.9h8.1c.5 0 .9.4.9.9s-.4.9-.9.9z"/><path d="M15.7 28.2c-.5 0-.9-.4-.9-.9v-8.1c0-.5.4-.9.9-.9s.9.4.9.9v8.1c0 .5-.4.9-.9.9zm36.6-4.1h-8.1c-.5 0-.9-.4-.9-.9s.4-.9.9-.9h8.1c.5 0 .9.4.9.9s-.4.9-.9.9z"/><path d="M48.3 28.2c-.5 0-.9-.4-.9-.9v-8.1c0-.5.4-.9.9-.9s.9.4.9.9v8.1c-.1.5-.5.9-.9.9zm-13.5-4.1h-5.6c-.5 0-.9-.4-.9-.9s.4-.9.9-.9h5.6c.5 0 .9.4.9.9s-.4.9-.9.9z"/></svg>