<svg xmlns="http://www.w3.org/2000/svg" viewBox="0 0 64 64"><path d="M32 63.3C14.8 63.3.7 49.3.7 32S14.8.8 32 .8s31.3 14 31.3 31.3S49.2 63.3 32 63.3zm0-60C16.1 3.3 3.3 16.1 3.3 32c0 15.9 12.9 28.8 28.8 28.8S60.9 47.9 60.9 32C60.8 16.1 47.9 3.3 32 3.3z"/><path d="M32 63.3c-.7 0-1.3-.6-1.3-1.3V2c0-.7.6-1.3 1.3-1.3s1.3.6 1.3 1.3v60c0 .7-.6 1.3-1.3 1.3z"/><path d="M62 33.3H2c-.7 0-1.3-.6-1.3-1.3s.6-1.3 1.3-1.3h60c.7 0 1.3.6 1.3 1.3s-.6 1.3-1.3 1.3zm-30-14c-8.8 0-17-2.7-22-7.1-.5-.5-.6-1.2-.1-1.8.5-.5 1.2-.6 1.8-.1 4.6 4.1 12.2 6.5 20.4 6.5 8.1 0 15.7-2.5 20.4-6.6.5-.5 1.3-.4 1.8.1s.4 1.3-.1 1.8C49 16.6 40.7 19.3 32 19.3zm21.2 34.9c-.3 0-.6-.1-.8-.3-4.6-4.1-12.2-6.6-20.4-6.6s-15.8 2.4-20.4 6.5c-.5.5-1.3.4-1.8-.1s-.4-1.3.1-1.8c5-4.5 13.2-7.1 22-7.1 8.7 0 17 2.7 22 7.2.5.5.6 1.3.1 1.8-.1.2-.5.4-.8.4z"/><path d="M31.7 63c-.2 0-.5-.1-.7-.2-9.7-6.8-15.5-18.3-15.5-30.6S21.3 8.3 31 1.5c.6-.4 1.3-.3 1.7.3.4.6.3 1.3-.3 1.7C23.4 9.9 18 20.6 18 32.1s5.4 22.2 14.5 28.6c.6.4.7 1.2.3 1.7-.3.4-.7.6-1.1.6z"/><path d="M32.7 63c-.4 0-.8-.2-1-.5-.4-.6-.3-1.3.3-1.7 9.1-6.4 14.5-17.1 14.5-28.6C46.5 20.6 41 9.9 32 3.5c-.6-.4-.7-1.2-.3-1.7.4-.6 1.2-.7 1.7-.3C43.1 8.3 49 19.8 49 32.1s-5.8 23.8-15.5 30.6c-.3.2-.5.3-.8.3z"/></svg>