<svg xmlns="http://www.w3.org/2000/svg" viewBox="0 0 64 64"><path d="M24.6 48.5c-.7 0-1.2-.5-1.2-1.2-.3-4.1-1.8-5.3-3.6-6.7-2.5-1.9-5.2-4.1-5.8-12.1-.3-4.1 1.2-8.1 4.1-11.2 3.5-3.7 8.6-5.9 13.9-5.9s10.4 2.2 13.9 5.9c3 3.2 4.4 7.2 4.1 11.2-.5 7.8-3.2 9.9-5.6 11.8-1.4 1.1-2.5 2-3.2 4-.2.7-.9 1-1.6.8-.7-.2-1-.9-.8-1.6.9-2.7 2.6-4 4-5.2 2.2-1.7 4.2-3.3 4.7-10 .2-3.4-1-6.7-3.5-9.4-3-3.2-7.5-5.1-12.1-5.1s-9.1 1.9-12.1 5.1c-2.5 2.7-3.7 6-3.5 9.4.4 6.9 2.6 8.5 4.8 10.3 2.1 1.6 4.2 3.3 4.6 8.5.2.8-.3 1.4-1.1 1.4.1 0 0 0 0 0zm.3 12.2c-.6 0-1.1-.4-1.2-.9-.2-.7.2-1.4.9-1.5l15.1-4c.7-.2 1.4.2 1.5.9.2.7-.2 1.4-.9 1.5l-15.1 4c-.1-.1-.2 0-.3 0zm0-5.7c-.6 0-1.1-.4-1.2-.9-.2-.7.2-1.4.9-1.5l15.1-4c.7-.2 1.4.2 1.5.9.2.7-.2 1.4-.9 1.5l-15.1 4c-.1-.1-.2 0-.3 0z"/><path d="M24.9 49.3c-.6 0-1.1-.4-1.2-.9-.2-.7.2-1.4.9-1.5l15.1-4c.7-.2 1.4.2 1.5.9.2.7-.2 1.4-.9 1.5l-15.1 4c-.1-.1-.2 0-.3 0zM32 63.5c-2.2 0-4.2-.9-5.5-2.6-.4-.5-.3-1.3.2-1.8.5-.4 1.3-.3 1.8.2.8 1 2 1.6 3.5 1.6 2.3 0 4.2-1.5 4.2-3.5 0-.7.6-1.3 1.3-1.3s1.3.6 1.3 1.3c-.1 3.5-3.1 6.1-6.8 6.1zM32.5 8c-.7 0-1.3-.6-1.3-1.3v-5c0-.7.6-1.3 1.3-1.3s1.3.6 1.3 1.3v5.1c0 .7-.6 1.2-1.3 1.2zm14.9 5.6c-.3 0-.6-.1-.9-.4-.5-.5-.5-1.3 0-1.8l3.6-3.6c.5-.5 1.3-.5 1.8 0s.5 1.3 0 1.8l-3.6 3.6c-.3.3-.6.4-.9.4zm11.9 16.3h-5c-.7 0-1.3-.6-1.3-1.3s.6-1.3 1.3-1.3h5c.7 0 1.3.6 1.3 1.3s-.6 1.3-1.3 1.3zm-9.1 18.9c-.3 0-.6-.1-.9-.4l-3.6-3.6c-.5-.5-.5-1.3 0-1.8s1.3-.5 1.8 0l3.6 3.6c.5.5.5 1.3 0 1.8-.3.2-.6.4-.9.4zM17.4 13.6c-.3 0-.6-.1-.9-.4l-3.6-3.6c-.5-.5-.5-1.3 0-1.8s1.3-.5 1.8 0l3.6 3.6c.5.5.5 1.3 0 1.8-.3.3-.6.4-.9.4zM9.7 28.8h-5c-.7 0-1.3-.6-1.3-1.3s.6-1.3 1.3-1.3h5c.7 0 1.3.6 1.3 1.3s-.6 1.3-1.3 1.3zm3.3 20c-.3 0-.6-.1-.9-.4-.5-.5-.5-1.3 0-1.8l3.6-3.6c.5-.5 1.3-.5 1.8 0s.5 1.3 0 1.8l-3.6 3.6c-.3.2-.6.4-.9.4zM31.5 40c-.4 0-.8-.2-1-.5l-5.6-7.6c-.4-.6-.3-1.3.3-1.7.6-.4 1.3-.3 1.7.3l4.5 6 7.4-13c.3-.6 1.1-.8 1.7-.5.6.3.8 1.1.5 1.7l-8.3 14.7c-.3.4-.7.6-1.2.6.1 0 0 0 0 0z"/></svg>