<svg xmlns="http://www.w3.org/2000/svg" viewBox="0 0 64 64"><path d="M48.1 62.3c-2.1 0-4.1-.5-6.1-1.4l-21.2-10c-1.3-.6-2.2-1.6-2.7-3s-.4-2.7.2-4c.1-.2.3-.4.5-.5 2.1-1.3 6.5-2 9-.8l.2.1-9.9-16c-.7-1.2-1-2.6-.6-4s1.2-2.5 2.3-3.3c1.2-.7 2.6-1 4-.6 1.4.3 2.5 1.2 3.3 2.3l4.4 7.2c.4-.4.8-.8 1.2-1.1 1.6-1 3.5-1 5.1-.2.4-.8 1.1-1.6 1.9-2.1 1.6-1 3.5-1 5.1-.2.4-.8 1.1-1.6 1.9-2.1 1.2-.8 2.8-1 4.2-.6 1.3.4 2.4 1.2 3.1 2.4l7.8 14.2c3.8 6.9 1.3 14.4-2.8 18.8-3.1 3.2-7 4.9-10.9 4.9zm-27.7-17c-.2.6-.2 1.2 0 1.7.2.7.7 1.2 1.4 1.6l21.2 10c5.8 2.7 11 .3 14.1-3 3.5-3.7 5.6-10 2.4-15.8l-7.8-14.2c-.3-.6-.9-1-1.5-1.2-.7-.2-1.6-.1-2.2.3-.7.5-1.2 1.3-1.3 2.1 0 .5-.4.9-.9 1.1-.5.2-1 0-1.3-.4-.9-1-2.4-1.3-3.5-.6-.7.5-1.2 1.3-1.3 2.1 0 .5-.4.9-.9 1.1-.5.2-1 0-1.3-.4-.9-1-2.4-1.3-3.5-.6-.6.4-1.1 1-1.2 1.8-.1.5-.5.9-1 1-.5.1-1-.1-1.3-.6l-5.6-9.1c-.4-.6-1-1.1-1.7-1.2-.7-.2-1.4 0-2.1.3-.6.4-1.1 1-1.2 1.7-.2.7 0 1.4.3 2.1L32.3 45c.3.5.2 1.1-.1 1.5s-1 .5-1.5.3l-4-1.9c-1.5-.7-4.7-.4-6.3.4zm0-24.7z"/><path d="M18.1 35.4c-.1 0-.3 0-.4-.1-5.1-1.8-8.6-6.7-8.6-12.1 0-7.1 5.8-12.8 12.8-12.8 6.3 0 11.7 4.7 12.7 10.9.1.7-.4 1.3-1 1.4-.7.1-1.3-.4-1.4-1-.8-5-5.2-8.8-10.2-8.8-5.7 0-10.3 4.6-10.3 10.3 0 4.4 2.8 8.3 6.9 9.7.7.2 1 .9.8 1.6-.3.6-.8.9-1.3.9z"/><path d="M13.4 42.8c-.2 0-.4 0-.5-.1C5.3 39.2.4 31.6.4 23.2.4 11.3 10 1.7 21.9 1.7c9.8 0 18.3 6.6 20.8 16 .2.7-.2 1.4-.9 1.5-.7.2-1.4-.2-1.5-.9C38.1 10 30.6 4.2 21.9 4.2c-10.5 0-19 8.5-19 19 0 7.4 4.3 14.2 11 17.3.6.3.9 1 .6 1.7-.1.4-.6.6-1.1.6z"/></svg>