<svg xmlns="http://www.w3.org/2000/svg" viewBox="0 0 64 64"><path d="M29.8 43.3c-.2 0-.3 0-.5-.1-1.6-.7-3.1-1.7-4.4-3l-1.1-1.1c-5.7-5.7-5.7-15.1 0-20.8L37.2 4.9C40 2.1 43.7.6 47.6.6c3.9 0 7.6 1.5 10.4 4.3L59.1 6c5.7 5.7 5.7 15.1 0 20.8L45.7 40.2c-1 1-2.2 1.9-3.4 2.5-.5.3-1.1.2-1.5-.2-.4-.4-.5-1-.2-1.5 1.8-3.3 1.9-7.4.4-10.8-.2-.5-.1-1 .3-1.4l10.2-10.2c1.1-1.1 1.1-3 0-4.2l-1.9-1.9c-1.2-1.2-3-1.1-4.2 0l-14 14c-1.1 1.1-1.1 3 0 4.2l1.9 1.9c.4.4 1 .7 1.6.8.5.1.9.5 1 1 .3 1.8-.3 3.6-1.5 4.8L30.7 43c-.3.2-.6.3-.9.3zM47.6 3.1c-3.3 0-6.3 1.3-8.6 3.6L25.6 20.1c-4.8 4.8-4.8 12.5 0 17.3l1.1 1.1c.8.8 1.8 1.6 2.9 2.1l3.1-3.1c.5-.5.8-1.2.8-1.9-.7-.3-1.4-.7-1.9-1.2l-1.9-1.9c-2.1-2.1-2.1-5.6 0-7.7l13.9-13.9c1-1 2.4-1.6 3.8-1.6 1.5 0 2.8.6 3.9 1.6l1.9 1.9c2.1 2.1 2.1 5.6 0 7.7L43.6 30c1 2.6 1.2 5.4.7 8.1l13-13c4.8-4.8 4.8-12.5 0-17.3l-1.1-1.1c-2.3-2.3-5.4-3.6-8.6-3.6z"/><path d="M16.4 63.4c-3.9 0-7.6-1.5-10.4-4.3L4.9 58c-5.7-5.7-5.7-15.1 0-20.8l13.4-13.4c1-1 2.1-1.9 3.4-2.5.5-.3 1.1-.2 1.5.2.4.4.5 1 .2 1.5-1.8 3.3-1.9 7.4-.4 10.8.2.5.1 1-.3 1.4L12.6 45.4c-1.1 1.1-1.1 3 0 4.2l1.9 1.9c.6.6 1.3.9 2.1.9s1.5-.3 2.1-.9l13.9-13.9c1.1-1.1 1.1-3 0-4.2l-1.9-1.9c-.4-.4-1-.7-1.6-.8-.5-.1-.9-.5-1-1-.3-1.8.3-3.6 1.5-4.8l3.7-3.7c.4-.4.9-.5 1.4-.3 1.6.7 3.1 1.7 4.4 3l1.1 1.1c2.8 2.8 4.3 6.5 4.3 10.4S43 43 40.2 45.8L26.8 59.1c-2.7 2.8-6.4 4.3-10.4 4.3zm-9.7-7.2l1.1 1.1c2.3 2.3 5.4 3.6 8.6 3.6 3.3 0 6.3-1.3 8.6-3.6l13.4-13.4c2.3-2.3 3.6-5.4 3.6-8.6s-1.3-6.3-3.6-8.6l-1.1-1.1c-.8-.8-1.8-1.6-2.9-2.1l-3.1 3.1c-.5.5-.8 1.2-.8 1.9.7.3 1.4.7 1.9 1.2l1.9 1.9c2.1 2.1 2.1 5.6 0 7.7L20.4 53.2c-1 1-2.4 1.6-3.8 1.6-1.5 0-2.8-.6-3.9-1.6l-1.9-1.9c-2.1-2.1-2.1-5.6 0-7.7l9.6-9.6c-1-2.6-1.2-5.4-.7-8.1l-13 13c-4.8 4.8-4.8 12.5 0 17.3z"/></svg>