<svg xmlns="http://www.w3.org/2000/svg" viewBox="0 0 64 64"><path d="M32 63.4c-.3 0-.6-.1-.9-.4-5.7-5.7-18.2-20.1-21.4-26.4-1.7-3.5-2.6-7.2-2.6-11.1C7.1 11.8 18.3.6 32 .6c6.6 0 12.9 2.6 17.6 7.3 4.7 4.7 7.3 10.9 7.3 17.6 0 3.9-.9 7.6-2.6 11.1-3.2 6.3-15.7 20.7-21.4 26.4-.3.3-.6.4-.9.4zm0-60.3c-12.3 0-22.4 10-22.4 22.4 0 3.5.8 6.9 2.4 10 2.8 5.7 14.2 18.9 20 24.9 5.8-6 17.2-19.2 20-24.9 1.6-3.1 2.4-6.5 2.4-10 0-6-2.3-11.6-6.5-15.8C43.6 5.4 38 3.1 32 3.1z"/><path d="M41.6 40.1c-.2 0-.4 0-.5-.1l-9-4.4L23 40c-.4.2-.9.2-1.3-.1-.4-.3-.6-.7-.5-1.2l1.4-9.9-7-7.2c-.3-.3-.4-.8-.3-1.3.1-.4.5-.8 1-.8l9.9-1.8 4.7-8.8c.2-.4.6-.7 1.1-.7.5 0 .9.3 1.1.7l4.7 8.8 9.9 1.8c.5.1.8.4 1 .8s0 .9-.3 1.3l-7 7.2 1.4 9.9c.1.5-.1.9-.5 1.2-.2.1-.5.2-.7.2zM32 33c.2 0 .4 0 .5.1l7.5 3.6-1.1-8.2c-.1-.4.1-.8.3-1l5.7-6-8.2-1.5c-.4-.1-.7-.3-.9-.6L32 12.1l-3.9 7.3c-.2.3-.5.6-.9.6L19 21.5l5.7 6c.3.3.4.7.3 1l-1 8.2 7.5-3.6c.1-.1.3-.1.5-.1z"/></svg>