<svg id="Layer_1" xmlns="http://www.w3.org/2000/svg" viewBox="0 0 64 64"><style>.st0{fill-rule:evenodd;clip-rule:evenodd}</style><path class="st0" d="M32 7.1c2.6 0 5 1.1 6.7 2.8 1.7 1.7 2.8 4.1 2.8 6.7 0 2.6-1.1 5-2.8 6.7-1.7 1.7-4.1 2.8-6.7 2.8-2.6 0-5-1.1-6.7-2.8-1.7-1.7-2.8-4.1-2.8-6.7 0-2.6 1.1-5 2.8-6.7C27 8.2 29.4 7.1 32 7.1zm-8 26V49l16-8.8v-7c-2.2 2.2-4.7 4.3-7.3 6.2l-.7.5-.7-.5c-2.6-2-5.1-4.1-7.3-6.3zm-2.3 16.7V30.7c-.5-.5-.9-1.1-1.3-1.6-2.4-3.1-4-6.5-4.5-10L5.7 16.2v34.1l16-.5zm2.3 1.8l16-8.8v13.5l-16 4.4v-9.1zm-2.3 9v-8.5l-16 .4v3.7l16 4.4zm20.6-29.9v9l16-.4V20.6l-10.1-2.8c-.3 4-2 7.7-4.6 11.2-.4.6-.8 1.1-1.3 1.7zm0 11.2v14.3l16 4.4V41.5l-16 .4zm5.9-26.4c-.3-4-2-7.7-4.7-10.3C40.6 2.3 36.5.4 32 .4s-8.6 1.8-11.5 4.8c-2.9 2.9-4.8 7-4.8 11.5l-10.9-3-1.4-.4V58l.8.2 18.3 5 .3.1.3-.1 18-5 18 5 1.4.4V18.9l-.8-.2-11.5-3.2zm-6.3-8.7c-2.5-2.5-6-4.1-9.9-4.1-3.9 0-7.4 1.6-9.9 4.1-2.5 2.5-4.1 6-4.1 9.9 0 3.9 1.6 7.6 4.2 11 2.5 3.3 6 6.4 9.8 9.4 3.8-2.9 7.3-6 9.8-9.4 2.6-3.4 4.2-7.1 4.2-11 0-3.9-1.6-7.4-4.1-9.9zm-4.8 4.7C35.8 10.2 34 9.4 32 9.4c-2 0-3.8.8-5.1 2.1-1.3 1.3-2.1 3.1-2.1 5.1 0 2 .8 3.8 2.1 5.1 1.3 1.3 3.1 2.1 5.1 2.1 2 0 3.8-.8 5.1-2.1 1.3-1.3 2.1-3.1 2.1-5.1 0-1.9-.8-3.8-2.1-5.1z"/></svg>