<svg xmlns="http://www.w3.org/2000/svg" viewBox="0 0 64 64"><path d="M52 58.7h-.6c-1.1 0-1.9-.9-4.9-3.9-4.9-5.1-14-14.6-23.2-14.6H6.7C3.3 40.2.5 37.4.5 34v-7.6c0-3.4 2.8-6.2 6.2-6.2h16.7c9.2 0 18.3-9.5 23.2-14.6 2.9-3.1 3.8-3.9 4.9-3.9h.5c2.7 0 4.9 2.2 4.9 4.9V54c0 2.6-2.2 4.7-4.9 4.7zm-.4-2.5h.4c1.3 0 2.4-1.1 2.4-2.4V6.5c0-1.3-1.1-2.4-2.4-2.4h-.4c-.5.3-2 1.8-3.2 3.2-5.2 5.4-14.8 15.4-25 15.4H6.7c-2 0-3.7 1.7-3.7 3.7V34c0 2 1.7 3.7 3.7 3.7h16.7c10.2 0 19.8 10 25 15.4 1.3 1.3 2.7 2.8 3.2 3.1zm.1-52.1z"/><path d="M55.6 40.3c-.5 0-1-.4-1.2-.9-.2-.7.2-1.4.9-1.5 3.4-1 5.7-4.1 5.7-7.7 0-3.5-2.4-6.7-5.7-7.7-.7-.2-1-.9-.9-1.5.2-.7.9-1 1.5-.9 4.4 1.3 7.5 5.4 7.5 10.1 0 4.6-3.1 8.8-7.5 10.1h-.3zm-31.9-.1c-.7 0-1.3-.6-1.3-1.3V21.4c0-.7.6-1.3 1.3-1.3s1.3.6 1.3 1.3v17.5c0 .7-.6 1.3-1.3 1.3zm-.4 22.2h-6c-2.4 0-4.8-1.9-5.4-4.3L7.5 39.2c-.1-.4 0-.8.2-1.1.2-.3.6-.5 1-.5h11c.6 0 1.1.4 1.2 1 .2 1.4.3 2.8.3 4.1.1 2.5.2 4.9 1.5 7.1l4 6.3c.7 1.1.7 2.6-.1 4-.6 1.4-1.9 2.3-3.3 2.3zm-13-22.2l4.1 17.4c.3 1.2 1.7 2.3 2.9 2.3h6c.4 0 .9-.4 1.2-1 .3-.5.4-1.1.2-1.4l-4-6.3c-1.8-2.8-1.8-5.6-1.9-8.3 0-.9-.1-1.8-.1-2.7h-8.4z"/></svg>