<svg xmlns="http://www.w3.org/2000/svg" viewBox="0 0 64 64"><path d="M41 51.5c-1.5 0-3-.2-4.4-.5-.5-.1-.9-.6-1-1.1l-.4-4.5c-.6-.2-1.2-.4-1.7-.7L30 47.6c-.4.3-1 .4-1.5.1-1.3-.8-2.4-1.7-3.5-2.8-1.1-1.1-2-2.2-2.8-3.5-.3-.5-.2-1 .1-1.5l2.9-3.5c-.3-.6-.5-1.1-.7-1.7l-4.5-.4c-.5-.1-1-.4-1.1-1-.3-1.5-.5-3-.5-4.4 0-1.5.2-3 .5-4.4.1-.5.6-.9 1.1-1l4.5-.4c.2-.6.4-1.2.7-1.7l-2.9-3.5c-.3-.4-.4-1-.1-1.5.8-1.3 1.7-2.4 2.8-3.5 1.1-1.1 2.2-2 3.5-2.8.5-.3 1-.2 1.5.1l3.5 2.9c.6-.3 1.1-.5 1.7-.7l.4-4.5c.1-.5.4-1 1-1.1 2.9-.7 6-.7 8.9 0 .5.1.9.6 1 1.1l.4 4.5c.6.2 1.2.4 1.7.7l3.5-2.9c.4-.3 1-.4 1.5-.1 1.3.8 2.4 1.7 3.5 2.8 1.1 1.1 2 2.2 2.8 3.5.3.5.2 1-.1 1.5l-2.9 3.5c.3.6.5 1.1.7 1.7l4.5.4c.5.1 1 .4 1.1 1 .3 1.5.5 3 .5 4.4 0 1.5-.2 3-.5 4.4-.1.5-.6.9-1.1 1l-4.5.4c-.2.6-.4 1.2-.7 1.7l2.9 3.5c.3.4.4 1 .1 1.5-.9 1.3-1.9 2.4-2.9 3.5-1.1 1.1-2.2 2-3.5 2.8-.5.3-1 .2-1.5-.1l-3.5-2.9c-.6.3-1.1.5-1.7.7l-.4 4.5c-.1.5-.4 1-1 1.1-1.4.3-2.9.5-4.4.5zm-3-2.7c2 .4 4 .4 6 0l.4-4.4c0-.5.4-.9.9-1.1 1-.3 1.9-.7 2.8-1.2.4-.2 1-.2 1.4.1l3.4 2.8c.8-.6 1.6-1.2 2.3-1.9.7-.7 1.4-1.5 1.9-2.3l-2.8-3.4c-.3-.4-.3-.9-.1-1.4.5-.9.9-1.9 1.2-2.8.1-.5.6-.8 1.1-.9l4.4-.4c.2-1 .3-2 .3-3s-.1-2-.3-3l-4.4-.4c-.5 0-.9-.4-1.1-.9-.3-1-.7-1.9-1.2-2.8-.2-.4-.2-1 .1-1.4l2.8-3.4c-.6-.8-1.2-1.6-1.9-2.3-.7-.7-1.5-1.4-2.3-1.9l-3.4 2.8c-.4.3-.9.4-1.4.1-.9-.5-1.8-.9-2.8-1.2-.5-.1-.8-.6-.9-1.1L44 9c-2-.4-4-.4-6 0l-.4 4.4c0 .5-.4.9-.9 1.1-1 .3-1.9.7-2.8 1.2-.4.2-1 .2-1.4-.1l-3.4-2.8c-.8.6-1.6 1.2-2.3 1.9-.7.7-1.4 1.5-1.9 2.3l2.8 3.4c.3.4.4.9.1 1.4-.5.9-.9 1.8-1.2 2.8-.1.5-.6.8-1.1.9l-4.4.4c-.2 1-.3 2-.3 3s.1 2 .3 3l4.4.4c.5 0 .9.4 1.1.9.3 1 .7 1.9 1.2 2.8.2.4.2 1-.1 1.4l-2.8 3.4c.6.8 1.2 1.6 1.9 2.3.7.7 1.5 1.4 2.3 1.9l3.4-2.8c.4-.3.9-.4 1.4-.1.9.5 1.8.9 2.8 1.2.5.1.8.6.9 1.1l.4 4.4zm-1.7-35.5z"/><path d="M41 38.7c-5.4 0-9.8-4.4-9.8-9.8s4.4-9.8 9.8-9.8 9.8 4.4 9.8 9.8-4.4 9.8-9.8 9.8zm0-17.2c-4.1 0-7.3 3.3-7.3 7.3 0 4.1 3.3 7.3 7.3 7.3s7.3-3.3 7.3-7.3-3.3-7.3-7.3-7.3z"/><path d="M38.2 38.2c-.7 0-1.3-.6-1.3-1.3V20.8c0-.7.6-1.3 1.3-1.3s1.3.6 1.3 1.3v16.1c-.1.7-.6 1.3-1.3 1.3z"/><path d="M33.5 62.9H6.3c-3.3 0-6-2.7-6-6V7.1c0-3.3 2.7-6 6-6h27.1c3.3 0 6 2.7 6 6 0 .7-.6 1.3-1.3 1.3s-1.3-.6-1.3-1.3c0-1.9-1.6-3.5-3.5-3.5h-27c-1.9 0-3.5 1.6-3.5 3.5V57c0 1.9 1.6 3.5 3.5 3.5h27.1c1.9 0 3.5-1.6 3.5-3.5v-5.2c0-.7.6-1.3 1.3-1.3s1.3.6 1.3 1.3V57c-.1 3.2-2.7 5.9-6 5.9z"/><path d="M29.2 50.7H10.7c-2.5 0-4.5-2-4.5-4.5v-34c0-2.5 2-4.5 4.5-4.5h18.5c2.5 0 4.5 2 4.5 4.5 0 .7-.6 1.3-1.3 1.3s-1.3-.6-1.3-1.3c0-1.1-.9-2-2-2H10.7c-1.1 0-2 .9-2 2v34.1c0 1.1.9 2 2 2h18.5c1.1 0 2-.9 2-2 0-.7.6-1.3 1.3-1.3s1.3.6 1.3 1.3c-.2 2.4-2.2 4.4-4.6 4.4zm-1.9 6H12.5c-.7 0-1.3-.6-1.3-1.3s.6-1.3 1.3-1.3h14.8c.7 0 1.3.6 1.3 1.3s-.6 1.3-1.3 1.3z"/></svg>