<svg xmlns="http://www.w3.org/2000/svg" viewBox="0 0 64 64"><path d="M39.6 62H4C2.1 62 .5 60.5.5 58.5v-53C.5 3.6 2.1 2 4 2h23.7c.7 0 1.3.6 1.3 1.3s-.6 1.3-1.3 1.3H4c-.5 0-1 .4-1 1v53c0 .5.4 1 1 1h35.6c.5 0 1-.4 1-1V17.3c0-.7.6-1.3 1.3-1.3s1.3.6 1.3 1.3v41.2c-.2 1.9-1.7 3.5-3.6 3.5z"/><path d="M41.8 18.5H29.9c-1.9 0-3.4-1.5-3.4-3.4V3.3c0-.5.3-1 .8-1.2.5-.2 1-.1 1.4.3l14.1 14c.4.4.5.9.3 1.4-.3.4-.8.7-1.3.7zM29 6.3v8.8c0 .5.4.9.9.9h8.9L29 6.3zm24.3 51.4c-2.5 0-5.1-2.3-5.1-7.3V10.5c0-.7.6-1.3 1.3-1.3h7.7c.7 0 1.3.6 1.3 1.3v39.9c-.2 5-2.8 7.3-5.2 7.3zm-2.6-45.9v38.7c0 3.1 1.3 4.8 2.6 4.8s2.6-1.6 2.6-4.8V11.8h-5.2z"/><path d="M62.1 33c-.7 0-1.3-.6-1.3-1.3l.1-13.7H49.4c-.7 0-1.3-.6-1.3-1.3s.6-1.3 1.3-1.3h12.8c.3 0 .7.1.9.4s.4.6.4.9l-.1 14.9c-.1.8-.6 1.4-1.3 1.4zm-9 29c-.7 0-1.3-.6-1.3-1.3v-4.3c0-.7.6-1.3 1.3-1.3s1.3.6 1.3 1.3v4.3c-.1.7-.6 1.3-1.3 1.3zM21.8 16H10.5c-.7 0-1.3-.6-1.3-1.3s.6-1.3 1.3-1.3h11.3c.7 0 1.3.6 1.3 1.3s-.6 1.3-1.3 1.3zm11.4 10.9H10.5c-.7 0-1.3-.6-1.3-1.3s.6-1.3 1.3-1.3h22.7c.7 0 1.3.6 1.3 1.3s-.6 1.3-1.3 1.3zm0 6.3H10.5c-.7 0-1.3-.6-1.3-1.3 0-.7.6-1.3 1.3-1.3h22.7c.7 0 1.3.6 1.3 1.3 0 .7-.6 1.3-1.3 1.3zm0 6.1H10.5c-.7 0-1.3-.6-1.3-1.3s.6-1.3 1.3-1.3h22.7c.7 0 1.3.6 1.3 1.3s-.6 1.3-1.3 1.3zm-11.4 6.4H10.5c-.7 0-1.3-.6-1.3-1.3s.6-1.3 1.3-1.3h11.3c.7 0 1.3.6 1.3 1.3s-.6 1.3-1.3 1.3z"/></svg>