<svg xmlns="http://www.w3.org/2000/svg" viewBox="0 0 64 64"><path d="M32 .6c4.4 0 8.4 1.8 11.2 4.7 2.9 2.9 4.7 6.8 4.7 11.2s-1.8 8.4-4.7 11.2l-.3.3c4.6 2.5 8.8 6.8 11.7 12.7 2.8 5.7 4.5 12.9 4.5 21.6v1.2H4.9v-1.2c0-8.7 1.7-15.9 4.5-21.6 2.9-5.9 7-10.2 11.7-12.7l-.3-.3c-2.9-2.9-4.7-6.8-4.7-11.2s1.8-8.4 4.7-11.2C23.6 2.3 27.6.6 32 .6zm3.1 31.5l5.8 4.2 1.8-5.9c-.5-.3-1-.6-1.5-.8-1.9 1.2-4 2-6.1 2.5zm9.5-.4l-2 6.8-.5 1.5-1.3-1-8.8-6.3-8.8 6.4-1.3 1-.5-1.6-2-6.8c-3.1 2.4-5.9 5.7-8 10-2.5 5.1-4.1 11.6-4.2 19.4h49.6c-.1-7.8-1.7-14.3-4.2-19.4-2.1-4.3-4.9-7.6-8-10zm-23.2-1.3l1.8 5.9 5.8-4.2c-2.2-.4-4.2-1.3-6-2.5-.6.2-1.1.5-1.6.8zM41.6 6.9c-2.5-2.5-5.8-4-9.6-4-3.7 0-7.1 1.5-9.6 4s-4 5.9-4 9.6 1.5 7.1 4 9.6 5.9 4 9.6 4 7.1-1.5 9.6-4 4-5.9 4-9.6-1.5-7.2-4-9.6z"/></svg>