<svg xmlns="http://www.w3.org/2000/svg" viewBox="0 0 64 64"><path d="M56.2 63.2c-.3 0-.6-.1-.9-.4L40.5 48c-.2-.2-.4-.6-.4-.9 0-.3.1-.7.4-.9l5.8-5.7c.5-.5 1.3-.5 1.8 0l14.8 14.8c.2.2.4.6.4.9 0 .3-.1.7-.4.9l-5.8 5.7c-.3.2-.6.4-.9.4zm-13-16.1l13 13 4-3.9-13-13-4 3.9z"/><path d="M26.7 52.8c-14.3-.1-26-11.8-26-26C.8 12.5 12.4.9 26.7.9s26 11.6 26 25.9-11.7 26-26 26zm0-49.4C13.9 3.4 3.3 13.8 3.3 26.7s10.5 23.4 23.5 23.5c12.9 0 23.4-10.5 23.4-23.5 0-12.8-10.6-23.3-23.5-23.3z"/><path d="M44.3 28c-.7 0-1.3-.6-1.3-1.3 0-9.1-7.4-16.5-16.5-16.5-.7 0-1.3-.6-1.3-1.3s.6-1.3 1.3-1.3c10.5 0 19 8.5 19 19 0 .9-.5 1.4-1.2 1.4z"/></svg>