<svg xmlns="http://www.w3.org/2000/svg" viewBox="0 0 64 64"><path d="M62.1 59H1.9c-.7 0-1.3-.6-1.3-1.3s.6-1.3 1.3-1.3h60.2c.7 0 1.3.6 1.3 1.3s-.6 1.3-1.3 1.3z"/><path d="M13.2 59H5.1c-.7 0-1.3-.6-1.3-1.3v-17c0-.7.6-1.3 1.3-1.3h8.1c.7 0 1.3.6 1.3 1.3v17c0 .7-.6 1.3-1.3 1.3zm-6.8-2.5H12V42H6.4v14.5zm22 2.5h-8c-.7 0-1.3-.6-1.3-1.3V25.5c0-.7.6-1.3 1.3-1.3h8c.7 0 1.3.6 1.3 1.3v32.2c-.1.7-.6 1.3-1.3 1.3zm-6.8-2.5h5.5V26.8h-5.5v29.7zm22 2.5h-8c-.7 0-1.3-.6-1.3-1.3V39.1c0-.7.6-1.3 1.3-1.3h8c.7 0 1.3.6 1.3 1.3v18.6c-.1.7-.6 1.3-1.3 1.3zm-6.8-2.5h5.5V40.3h-5.5v16.2zM58.9 59h-8.1c-.7 0-1.3-.6-1.3-1.3V32c0-.7.6-1.3 1.3-1.3h8.1c.7 0 1.3.6 1.3 1.3v25.7c0 .7-.6 1.3-1.3 1.3zM52 56.5h5.6V33.3H52v23.2zM9.2 32c-3.2 0-5.9-2.6-5.9-5.8s2.6-5.9 5.9-5.9c3.2 0 5.8 2.7 5.8 5.9S12.4 32 9.2 32zm0-9.1c-1.8 0-3.4 1.5-3.4 3.4s1.5 3.3 3.4 3.3 3.3-1.5 3.3-3.3c0-1.9-1.5-3.4-3.3-3.4zm15.2-6.3c-3.2 0-5.9-2.6-5.9-5.9S21.2 5 24.4 5s5.9 2.6 5.9 5.8-2.7 5.8-5.9 5.8zm0-9.1C22.6 7.5 21 9 21 10.8s1.5 3.4 3.4 3.4 3.4-1.5 3.4-3.4-1.6-3.3-3.4-3.3zm15.2 23c-3.2 0-5.8-2.6-5.8-5.8 0-3.3 2.6-6 5.8-6 1.6 0 3.2.7 4.3 1.8 1.1 1.1 1.7 2.6 1.6 4.2 0 3.2-2.7 5.8-5.9 5.8zm0-9.2c-1.9 0-3.3 1.5-3.3 3.5 0 1.8 1.5 3.3 3.3 3.3 1.8 0 3.4-1.5 3.4-3.3 0-.9-.3-1.8-.9-2.4-.7-.8-1.6-1.1-2.5-1.1zm15.2 2.2c-3.2 0-5.8-2.6-5.8-5.9s2.6-5.9 5.8-5.9c1.6 0 3.2.7 4.3 1.8 1.1 1.1 1.6 2.6 1.6 4.1 0 3.2-2.7 5.9-5.9 5.9zm0-9.2c-1.8 0-3.3 1.5-3.3 3.4S53 21 54.8 21c1.8 0 3.4-1.5 3.4-3.4 0-.9-.3-1.7-.9-2.3-.7-.7-1.6-1-2.5-1z"/><path d="M13.3 23.4c-.3 0-.6-.1-.9-.4-.5-.5-.5-1.3 0-1.8l7.2-7.1c.5-.5 1.3-.5 1.8 0s.5 1.3 0 1.8L14.2 23c-.3.2-.6.4-.9.4zm22.5-.9c-.3 0-.6-.1-.9-.3l-7.2-6.7c-.5-.5-.5-1.3-.1-1.8.5-.5 1.3-.5 1.8-.1l7.2 6.7c.5.5.5 1.3.1 1.8-.2.3-.6.4-.9.4zm8.4 1.5c-.5 0-.9-.3-1.1-.7-.3-.6 0-1.4.6-1.7l5.5-2.7c.6-.3 1.4 0 1.7.6.3.6 0 1.4-.6 1.7l-5.5 2.7c-.2 0-.4.1-.6.1z"/></svg>