<svg xmlns="http://www.w3.org/2000/svg" viewBox="0 0 64 64"><path d="M27.1 63.5c-6.8 0-13.7-2.6-18.9-7.8C-2.2 45.3-2.2 28.4 8.2 18c9.4-9.4 23.9-10.5 34.6-2.7.6.4.7 1.2.3 1.7-.4.6-1.2.7-1.7.3-9.7-7.1-22.8-6-31.3 2.5C.7 29.2.7 44.6 10.1 54c9.4 9.4 24.8 9.4 34.2 0 8.5-8.5 9.5-21.7 2.5-31.3-.4-.6-.3-1.3.3-1.7s1.3-.3 1.7.3c7.8 10.7 6.7 25.2-2.7 34.6-5.3 5-12.2 7.6-19 7.6z"/><path d="M27.1 56.5c-5.3 0-10.2-2-13.9-5.8-7.7-7.7-7.7-20.2 0-27.9 6.5-6.5 16.8-7.6 24.5-2.7.6.4.8 1.1.4 1.7-.4.6-1.1.7-1.7.4-6.8-4.2-15.8-3.2-21.5 2.4-6.7 6.7-6.7 17.6 0 24.3 3.2 3.2 7.6 5 12.2 5s8.9-1.8 12.2-5c5.7-5.7 6.7-14.7 2.3-21.4-.4-.6-.2-1.4.4-1.7.6-.4 1.4-.2 1.7.4 5 7.7 3.8 18-2.7 24.5-3.7 3.7-8.6 5.8-13.9 5.8z"/><path d="M27.1 49.5c-3.3 0-6.5-1.2-9-3.7-5-5-5-13 0-18 3.8-3.8 9.5-4.8 14.3-2.5.6.3.9 1 .6 1.7-.3.6-1 .9-1.7.6-3.9-1.8-8.5-1-11.5 2-4 4-4 10.5 0 14.4 4 4 10.5 4 14.4 0 3-3 3.8-7.6 2-11.5-.3-.6 0-1.4.6-1.7.6-.3 1.4 0 1.7.6 2.2 4.8 1.2 10.6-2.6 14.3-2.3 2.6-5.6 3.8-8.8 3.8z"/><path d="M27.1 42.5c-1.5 0-3-.6-4-1.7-2.2-2.2-2.2-5.9 0-8.1.7-.7 1.5-1.1 2.4-1.4.7-.2 1.4.2 1.6.8.2.7-.2 1.4-.8 1.6-.5.2-1 .4-1.3.8-.6.6-.9 1.4-.9 2.3s.3 1.7.9 2.3c1.2 1.2 3.3 1.2 4.6 0 .4-.4.6-.8.8-1.3.2-.7.9-1 1.6-.8.7.2 1 .9.8 1.6-.3.9-.8 1.7-1.4 2.4-1.3.9-2.8 1.5-4.3 1.5z"/><path d="M27.4 37.8c-.3 0-.6-.1-.9-.4-.5-.5-.5-1.3 0-1.8L58.3 3.9c.5-.5 1.3-.5 1.8 0s.5 1.3 0 1.8L28.3 37.5c-.2.2-.6.3-.9.3z"/><path d="M54.8 20.1c-.1 0-.3 0-.4-.1L48 18c-.7-.2-1-.9-.8-1.6.2-.7.9-1 1.6-.8l5.7 1.8L60 12l-4.5-1.4c-.7-.2-1-.9-.8-1.6.2-.7.9-1 1.6-.8l6.4 2c.4.1.7.5.8.9.1.4 0 .9-.3 1.2l-7.5 7.5c-.2.2-.5.3-.9.3z"/><path d="M47.3 16.9c-.5 0-1-.3-1.2-.9l-2-6.4c-.1-.4 0-.9.3-1.3L51.9.8c.3-.3.8-.4 1.2-.3.4.1.8.4.9.8l2 6.4c.2.7-.2 1.4-.8 1.6-.7.2-1.4-.2-1.6-.8L52.2 4l-5.5 5.5 1.8 5.7c.2.7-.2 1.4-.8 1.6-.2.1-.3.1-.4.1z"/></svg>