<svg xmlns="http://www.w3.org/2000/svg" viewBox="0 0 64 64"><path d="M32 63.6C14.6 63.6.4 49.4.4 32S14.6.4 32 .4 63.6 14.6 63.6 32 49.4 63.6 32 63.6zm0-60.7C15.9 2.9 2.9 15.9 2.9 32S16 61.1 32 61.1C48.1 61.1 61.1 48 61.1 32c0-16.1-13-29.1-29.1-29.1z"/><path d="M32 13.2c-.7 0-1.3-.6-1.3-1.3V1.6c0-.7.6-1.3 1.3-1.3s1.3.6 1.3 1.3v10.3c0 .7-.6 1.3-1.3 1.3zM11.9 33.3H1.6C.9 33.3.3 32.7.3 32s.6-1.3 1.3-1.3h10.3c.7 0 1.3.6 1.3 1.3s-.6 1.3-1.3 1.3zM32 63.6c-.7 0-1.3-.6-1.3-1.3V52.1c0-.7.6-1.3 1.3-1.3s1.3.6 1.3 1.3v10.3c0 .6-.6 1.2-1.3 1.2zm30.4-30.3H52.1c-.7 0-1.3-.6-1.3-1.3s.6-1.3 1.3-1.3h10.3c.7 0 1.3.6 1.3 1.3s-.7 1.3-1.3 1.3z"/><path d="M16.6 53.3c-.6 0-1.2-.5-1.2-1.1-.2-2-.4-6.9 2.6-9.6 1.4-1.3 3.1-1.9 4.5-2.4 1.2-.4 2.3-.8 3.2-1.5 1.7-1.5 1.9-3.2.6-5.2-1.6-2.4-2.6-5.7-2.6-8.4 0-5.1 3.7-9.1 8.3-9.1 4.7 0 8.3 4 8.3 9.1 0 2.7-1 6-2.6 8.4-1.3 2.1-1.1 3.7.6 5.2.8.7 2 1.1 3.2 1.5 1.5.5 3.1 1.1 4.5 2.4 3 2.7 2.8 7.6 2.6 9.6-.1.7-.7 1.2-1.4 1.1-.7-.1-1.2-.7-1.1-1.4.2-1.6.4-5.6-1.8-7.5-1-.9-2.3-1.4-3.7-1.9-1.4-.5-2.8-1-4-2-2.6-2.3-3-5.3-1-8.4 1.3-2 2.2-4.9 2.2-7.1 0-3.7-2.6-6.6-5.8-6.6s-5.8 2.9-5.8 6.6c0 2.2.9 5 2.2 7.1 2 3.1 1.6 6.1-1 8.4-1.2 1-2.6 1.5-4 2s-2.6.9-3.7 1.9c-2.2 2-1.9 6.2-1.8 7.5.1.7-.4 1.3-1.1 1.4h-.2z"/><path d="M11.6 47.9h-.2c-.7-.1-1.1-.8-1-1.4.5-2.8 1.3-6.2 3.6-8.3 1.1-1 2.2-1.4 3.1-1.7.7-.2 1.3-.4 1.9-1 1.2-1 1.4-1.6.4-3.2-1.2-1.9-2-4.6-2-6.7 0-4.1 2.9-7.4 6.7-7.4 1 0 1.9.2 2.8.6.6.3.9 1.1.6 1.7-.3.6-1.1.9-1.7.6-.5-.3-1.1-.4-1.7-.4-2.3 0-4.2 2.1-4.2 4.9 0 1.6.6 3.8 1.6 5.3 1.6 2.5 1.3 4.4-.8 6.3-1 .9-1.9 1.2-2.7 1.5-.8.3-1.5.5-2.2 1.2-1.7 1.6-2.4 4.5-2.8 6.9-.2.6-.8 1.1-1.4 1.1zm40.8 0c-.6 0-1.1-.4-1.2-1-.4-2.4-1.1-5.3-2.8-6.8-.8-.7-1.4-.9-2.2-1.2-.8-.3-1.8-.6-2.7-1.5-2.1-1.9-2.4-3.9-.8-6.3 1-1.5 1.6-3.7 1.6-5.3 0-2.7-1.8-4.9-4.2-4.9-.6 0-1.2.1-1.7.4-.6.3-1.4.1-1.7-.6-.3-.6-.1-1.4.6-1.7.9-.4 1.8-.6 2.8-.6 3.7 0 6.7 3.2 6.7 7.4 0 2.1-.8 4.7-2 6.7-1 1.6-.8 2.1.4 3.2.6.5 1.2.7 1.9 1 .9.3 2 .7 3.1 1.7 2.3 2.1 3.1 5.5 3.6 8.3.1.7-.3 1.3-1 1.4-.3-.3-.4-.2-.4-.2z"/></svg>