<svg xmlns="http://www.w3.org/2000/svg" viewBox="0 0 64 64"><path d="M33.3 63.6c-6.3 0-14.3-2.9-18.9-6.9-1.1-.5-7.6-1.5-11.9-1.5H1.3V29.1l.7-.4c2-1.1 4.7-1.9 7.8-2.8 7.8-2.3 17.4-5.1 24.3-14.7l3.3-8.8c.5-1.2 1.6-2 3-2 2.2 0 5.2 1.7 6.1 4 1.1 2.8 1.1 8.6-.4 11.3l-5 9-2.1-1.2 5-9c1.1-2 1.1-7 .2-9.2-.4-1.1-2.4-2.4-3.8-2.4-.6 0-.7.2-.7.3l-3.5 9.3c-7.4 10.4-18 13.5-25.7 15.7-2.5.8-4.9 1.5-6.6 2.3v22.1c3.8.2 11 1 12.2 2.1 4.3 3.8 11.9 6.5 17.7 6.4l15.7-.4.1 2.5-15.7.4h-.6z"/><path d="M54.6 34.5H42.4c-3.1 0-5.6-2.5-5.6-5.6v-.7c0-3.1 2.5-5.6 5.6-5.6h12.2c3.1 0 5.6 2.5 5.6 5.6v.7c0 3.1-2.5 5.6-5.6 5.6zm-12.2-9.4c-1.7 0-3.1 1.4-3.1 3.1v.7c0 1.7 1.4 3.1 3.1 3.1h12.2c1.7 0 3.1-1.4 3.1-3.1v-.7c0-1.7-1.4-3.1-3.1-3.1H42.4z"/><path d="M57.1 44.3H42.5c-3.1 0-5.6-2.5-5.6-5.6V38c0-3.1 2.5-5.6 5.6-5.6H57c3.1 0 5.6 2.5 5.6 5.6v.7c0 3.1-2.5 5.6-5.5 5.6zm-14.6-9.4c-1.7 0-3.1 1.4-3.1 3.1v.7c0 1.7 1.4 3.1 3.1 3.1H57c1.7 0 3.1-1.4 3.1-3.1V38c0-1.7-1.4-3.1-3.1-3.1H42.5z"/><path d="M53.2 54h-10c-3.1 0-5.6-2.5-5.6-5.6v-.7c0-3.1 2.5-5.6 5.6-5.6h10c3.1 0 5.6 2.5 5.6 5.6v.7c0 3.1-2.5 5.6-5.6 5.6zm-9.9-9.4c-1.7 0-3.1 1.4-3.1 3.1v.7c0 1.7 1.4 3.1 3.1 3.1h10c1.7 0 3.1-1.4 3.1-3.1v-.7c0-1.7-1.4-3.1-3.1-3.1h-10z"/><path d="M49.6 63.3h-7.7c-3.1 0-5.6-2.5-5.6-5.6V57c0-3.1 2.5-5.6 5.6-5.6h7.7c3.1 0 5.6 2.5 5.6 5.6v.7c0 3.1-2.5 5.6-5.6 5.6zm-7.7-9.4c-1.7 0-3.1 1.4-3.1 3.1v.7c0 1.7 1.4 3.1 3.1 3.1h7.7c1.7 0 3.1-1.4 3.1-3.1V57c0-1.7-1.4-3.1-3.1-3.1h-7.7zM27.5 41.4L27 39c5.2-1 8.6-5.1 10.2-12.4l2.4.5c-1.8 8.3-5.8 13.1-12.1 14.3z"/></svg>