<svg xmlns="http://www.w3.org/2000/svg" viewBox="0 0 64 64"><path d="M31.5 31.3c-.7 0-1.3-.6-1.3-1.3v-3.7c0-.7.6-1.3 1.3-1.3.7 0 1.2.6 1.2 1.3V30c.1.7-.5 1.3-1.2 1.3zm0 19.8c-.7 0-1.3-.6-1.3-1.3v-3.7c0-.7.6-1.3 1.3-1.3.7 0 1.2.6 1.2 1.3v3.7c.1.7-.5 1.3-1.2 1.3z"/><path d="M32.3 46.8c-.4 0-.9 0-1.4-.1-1.6-.2-3.1-.7-4.7-1.2l-.3-.1c-.7-.2-1-.9-.8-1.6.2-.7.9-1 1.6-.8l.3.1c1.6.5 2.9 1 4.2 1.1 2.7.3 4.3-.5 4.9-1.4.4-.5.4-1.2.1-1.7-.6-1.1-2.3-1.8-4.6-1.8-3.3 0-5.9-1.1-6.9-3.1-.7-1.4-.6-3 .3-4.3 1.3-1.9 4.1-2.9 7.4-2.5 1.6.2 3.1.7 4.7 1.2l.3.1c.7.2 1 .9.8 1.6-.2.7-.9 1-1.6.8l-.4-.1c-1.6-.5-2.9-1-4.2-1.1-2.8-.3-4.4.5-5 1.4-.4.5-.4 1.1-.1 1.7.6 1.1 2.4 1.8 4.7 1.8h.1c3.3 0 5.8 1.1 6.8 3.1.7 1.4.6 3-.3 4.3-1.2 1.7-3.3 2.6-5.9 2.6z"/><path d="M31.5 63.9c-14.2 0-25.8-11.6-25.8-25.8 0-14.2 11.6-25.8 25.8-25.8s25.8 11.6 25.8 25.8c0 14.2-11.6 25.8-25.8 25.8zm0-49.1c-12.8 0-23.3 10.4-23.3 23.3s10.4 23.3 23.3 23.3c12.8 0 23.3-10.4 23.3-23.3S44.4 14.8 31.5 14.8z"/><path d="M28.7 14.8c-.7 0-1.3-.6-1.3-1.3V8c0-.7.6-1.3 1.3-1.3S30 7.3 30 8v5.6c-.1.6-.7 1.2-1.3 1.2zm5.7 0c-.7 0-1.3-.6-1.3-1.3V8c0-.7.6-1.3 1.3-1.3s1.3.6 1.3 1.3v5.6c-.1.6-.6 1.2-1.3 1.2zm16.5 8.8c-.3 0-.6-.1-.9-.4-.5-.5-.5-1.3 0-1.8l5.3-5.3-1.8-1.8-5.3 5.3c-.5.5-1.3.5-1.8 0s-.5-1.3 0-1.8l6.2-6.2c.2-.2.6-.4.9-.4.3 0 .6.1.9.4l3.6 3.6c.5.5.5 1.3 0 1.8l-6.2 6.2c-.3.3-.6.4-.9.4z"/><path d="M37.9 8.6H25.1c-1.3 0-2.4-1.1-2.4-2.4V2.5c0-1.3 1.1-2.4 2.4-2.4h12.8c1.3 0 2.4 1.1 2.4 2.4v3.8c0 1.3-1.1 2.3-2.4 2.3zM25.2 6.1h12.5V2.6H25.2v3.5zm12.7-3.5zm-6.4 56.3c-11.4 0-20.8-9.3-20.8-20.8S20 17.3 31.5 17.3s20.8 9.3 20.8 20.8S43 58.9 31.5 58.9zm0-39.1c-10.1 0-18.3 8.2-18.3 18.3 0 10.1 8.2 18.3 18.3 18.3 10.1 0 18.3-8.2 18.3-18.3 0-10.1-8.2-18.3-18.3-18.3z"/></svg>