<svg xmlns="http://www.w3.org/2000/svg" viewBox="0 0 64 64"><path d="M9.2 63.2c-2.1 0-4.1-.8-5.7-2.4-1.5-1.5-2.4-3.6-2.4-5.7 0-2.2.8-4.2 2.4-5.7L34.9 18c-.9-4.8.5-9.6 4-13 3.8-3.8 9.3-5.2 14.4-3.6.4.1.7.5.9.9.1.4 0 .9-.3 1.2l-6.2 6.2 1.5 5.6 5.6 1.5 6.2-6.2c.3-.3.8-.4 1.2-.3.4.1.8.4.9.9 1.5 5.1.1 10.6-3.6 14.4-3.5 3.5-8.3 4.9-13 4L14.9 60.9c-1.6 1.6-3.6 2.3-5.7 2.3zM49.1 3.3c-3.1 0-6.2 1.2-8.5 3.5-3 3-4.2 7.3-3.2 11.4.1.4 0 .9-.3 1.2L5.2 51.2c-1.1 1.1-1.6 2.5-1.6 4s.6 2.9 1.6 4c2.2 2.2 5.7 2.2 7.9 0L45 27.3c.3-.3.8-.4 1.2-.3 4.1 1 8.4-.2 11.4-3.2 2.6-2.6 3.8-6.2 3.5-9.8l-5 5c-.3.3-.8.4-1.2.3l-7-1.9c-.4-.1-.8-.5-.9-.9l-1.9-7c-.1-.4 0-.9.3-1.2l5-5h-1.3zm3.5 59.9c-2.1 0-4.2-.8-5.7-2.4L36.1 50.1c-.5-.5-.5-1.3 0-1.8l9.7-9.7c.5-.5 1.3-.5 1.8 0l10.7 10.7c1.5 1.5 2.4 3.6 2.4 5.7 0 2.2-.8 4.2-2.4 5.7-1.6 1.8-3.6 2.5-5.7 2.5zm-13.8-14l9.9 9.9c1.1 1.1 2.5 1.6 4 1.6s2.9-.6 4-1.6c1.1-1.1 1.6-2.5 1.6-4s-.6-2.9-1.6-4l-9.9-9.9-8 8z"/><path d="M25.8 29.6c-.3 0-.6-.1-.9-.4L11.6 15.9c-.5-.5-.5-1.3 0-1.8s1.3-.5 1.8 0l13.3 13.3c.5.5.5 1.3 0 1.8-.3.2-.6.4-.9.4zm16.1 16.1c-.3 0-.6-.1-.9-.4l-6.2-6.2c-.5-.5-.5-1.3 0-1.8s1.3-.5 1.8 0l6.2 6.2c.5.5.5 1.3 0 1.8-.3.3-.6.4-.9.4z"/><path d="M7.7 18.9h-.1c-.4 0-.7-.3-.9-.6l-6-9.9C.3 7.9.4 7.3.8 6.9L5 2.7c.4-.4 1-.5 1.5-.2l9.9 6c.4.2.6.5.6.9s-.1.8-.4 1l-8.1 8.1c-.2.3-.5.4-.8.4zM3.3 8L8 15.7l5.8-5.8-7.7-4.8L3.3 8z"/></svg>