<svg xmlns="http://www.w3.org/2000/svg" viewBox="0 0 64 64"><path d="M62.5 58.3h-61C.8 58.3.2 57.7.2 57s.6-1.3 1.3-1.3h61c.7 0 1.3.6 1.3 1.3s-.6 1.3-1.3 1.3zm0-9h-61C.8 49.3.2 48.7.2 48V5.1c0-.7.6-1.3 1.3-1.3h61c.7 0 1.3.6 1.3 1.3V48c0 .7-.6 1.3-1.3 1.3zM2.8 46.8h58.5V6.4H2.8v40.4zm19.8-8c-.2 0-.4-.1-.6-.2-.4-.2-.6-.6-.6-1.1V15.6c0-.4.2-.9.6-1.1s.9-.2 1.3 0L42 25.6c.4.2.6.6.6 1.1s-.2.9-.6 1.1L23.2 38.6c-.2.1-.4.2-.6.2zm1.3-21v17.6L39 26.7l-15.1-8.9z"/><path d="M14.5 60.3c-1.9 0-3.5-1.5-3.5-3.5 0-1.9 1.5-3.5 3.5-3.5 1.9 0 3.5 1.5 3.5 3.5s-1.6 3.5-3.5 3.5zm0-4.5c-.5 0-1 .3-1 1 0 .5.4 1 1 1s1-.4 1-1-.5-1-1-1z"/></svg>